<svg width="27" height="27" viewBox="0 0 27 27" fill="none" xmlns="http://www.w3.org/2000/svg">
<path d="M22.0765 20.8757C22.2207 20.9963 22.3648 21.1003 22.4893 21.2249C23.882 22.6129 25.2737 24.0021 26.6644 25.3923C26.9487 25.6752 27.074 25.9952 26.9566 26.379C26.7636 27.015 25.9711 27.2096 25.4772 26.7399C25.0644 26.3459 24.669 25.9361 24.2657 25.5326C23.2022 24.4686 22.1395 23.4042 21.0777 22.3392C21.0074 22.2543 20.9451 22.163 20.8917 22.0665C17.855 24.5845 14.4582 25.5964 10.6432 25.0132C7.3307 24.5073 4.63582 22.8783 2.5924 20.2224C-1.37311 15.0691 -0.727946 7.77057 4.10488 3.30524C8.81009 -1.04265 16.1795 -1.15299 21.0658 3.28318C25.9522 7.71934 26.6959 15.4647 22.0765 20.8757ZM12.6488 1.8985C9.8098 1.89326 7.08462 3.01457 5.07083 5.01654C3.05703 7.01851 1.91899 9.73774 1.90627 12.5779C1.9013 13.9939 2.17577 15.397 2.71395 16.7067C3.25212 18.0163 4.04342 19.2068 5.04247 20.2099C6.04151 21.213 7.22864 22.0089 8.53579 22.552C9.84294 23.0951 11.2444 23.3747 12.6598 23.3748C18.5277 23.3803 23.3629 18.558 23.3779 12.6843C23.3838 11.2706 23.1107 9.86967 22.5742 8.5618C22.0378 7.25393 21.2485 6.06487 20.2517 5.06281C19.255 4.06076 18.0702 3.26542 16.7656 2.72242C15.4609 2.17941 14.0619 1.89942 12.6488 1.8985Z" fill="#E5097F"/>
<path d="M12.6126 21.6008C11.4306 21.596 10.2612 21.3573 9.17169 20.8985C8.08223 20.4396 7.09424 19.7698 6.26461 18.9274C5.43498 18.085 4.7801 17.0868 4.33766 15.9902C3.89523 14.8936 3.67399 13.7202 3.68667 12.5377C3.71345 7.66023 7.78295 3.65358 12.6772 3.68746C17.6243 3.72214 21.6079 7.74062 21.5882 12.6717C21.5685 17.6028 17.5266 21.6315 12.6126 21.6008ZM19.7961 12.6575C19.8018 10.7627 19.0577 8.94258 17.7263 7.59484C16.395 6.2471 14.5846 5.48126 12.6906 5.46461C10.7861 5.45497 8.95568 6.2022 7.6016 7.54209C6.24753 8.88198 5.48059 10.7049 5.46934 12.6102C5.4528 16.5341 8.64396 19.77 12.5535 19.7945C13.4988 19.8063 14.437 19.6306 15.314 19.2775C16.1909 18.9244 16.9892 18.4009 17.6627 17.7372C18.3362 17.0736 18.8715 16.2829 19.2377 15.411C19.6039 14.5391 19.7937 13.6033 19.7961 12.6575Z" fill="#E5097F"/>
<path d="M11.754 12.2516C11.754 11.3974 11.754 10.5428 11.754 9.68799C11.754 9.02678 12.0825 8.63589 12.6355 8.63431C13.1885 8.63273 13.5351 9.03466 13.5351 9.67853C13.5351 11.4171 13.5351 13.1556 13.5351 14.8941C13.5351 15.471 13.153 15.8863 12.6323 15.8792C12.1116 15.8721 11.7532 15.4702 11.7532 14.9036C11.7532 14.0193 11.754 13.1354 11.754 12.2516Z" fill="#E5097F"/>
<path d="M16.6632 13.1784C16.6632 13.749 16.6632 14.3193 16.6632 14.8894C16.6632 15.4702 16.2859 15.884 15.7644 15.8784C15.2429 15.8729 14.8821 15.471 14.8821 14.9052C14.8821 13.7545 14.9026 12.6039 14.875 11.4549C14.8577 10.7582 15.3626 10.4209 15.7644 10.4185C16.3095 10.4185 16.6616 10.8276 16.6632 11.4683C16.6643 12.0383 16.6643 12.6084 16.6632 13.1784Z" fill="#E5097F"/>
<path d="M10.4069 14.0091C10.4069 14.3038 10.4148 14.5986 10.4069 14.8933C10.4067 15.127 10.3147 15.3512 10.1506 15.5176C9.98658 15.6839 9.76372 15.779 9.53017 15.7823C9.41436 15.7877 9.29864 15.7698 9.18987 15.7296C9.0811 15.6895 8.98149 15.6279 8.89694 15.5485C8.8124 15.4691 8.74463 15.3736 8.69765 15.2676C8.65068 15.1615 8.62545 15.0471 8.62347 14.9312C8.6022 14.3133 8.60299 13.6931 8.62347 13.0744C8.62393 12.9584 8.64766 12.8437 8.69326 12.737C8.73885 12.6303 8.80538 12.5339 8.8889 12.4535C8.97242 12.373 9.07124 12.3101 9.17949 12.2685C9.28775 12.227 9.40325 12.2076 9.51914 12.2115C9.75303 12.2119 9.97728 12.3047 10.1431 12.4697C10.3089 12.6347 10.4029 12.8586 10.4046 13.0925C10.4156 13.3991 10.4069 13.7041 10.4069 14.0091Z" fill="#E5097F"/>
</svg>
