<svg width="299" height="278" viewBox="0 0 299 278" fill="none" xmlns="http://www.w3.org/2000/svg">
<g clip-path="url(#clip0_2_134)">
<path d="M153.059 275.052C151.606 275.052 150.137 275.029 148.696 274.984L148.729 273.939C150.798 274.003 152.91 274.021 154.989 273.992L155.004 275.038C154.357 275.047 153.708 275.051 153.059 275.052ZM161.308 274.809L161.247 273.765C163.319 273.643 165.418 273.472 167.486 273.256L167.595 274.295C165.512 274.513 163.397 274.686 161.308 274.809V274.809ZM142.397 274.646C140.308 274.486 138.196 274.277 136.12 274.023L136.248 272.985C138.308 273.237 140.403 273.445 142.477 273.603L142.397 274.646ZM173.852 273.496L173.695 272.462C175.754 272.15 177.829 271.788 179.861 271.386L180.065 272.411C178.017 272.817 175.927 273.182 173.852 273.496ZM129.878 273.114C127.814 272.764 125.73 272.363 123.684 271.92L123.907 270.897C125.936 271.338 128.004 271.736 130.053 272.082L129.878 273.114ZM186.223 271.042L185.971 270.027C187.992 269.528 190.025 268.976 192.013 268.388L192.31 269.391C190.308 269.984 188.26 270.539 186.223 271.042ZM117.552 270.442C115.527 269.905 113.489 269.313 111.495 268.684L111.81 267.687C113.79 268.311 115.812 268.898 117.821 269.431L117.552 270.442ZM198.315 267.461L197.972 266.473C199.933 265.793 201.906 265.057 203.836 264.286L204.225 265.257C202.28 266.034 200.292 266.775 198.315 267.461L198.315 267.461ZM105.509 266.642C103.542 265.92 101.563 265.142 99.6272 264.328L100.034 263.364C101.955 264.171 103.919 264.944 105.871 265.661L105.509 266.642ZM210.013 262.789L209.58 261.837C211.463 260.983 213.357 260.071 215.207 259.127L215.684 260.058C213.819 261.009 211.912 261.928 210.013 262.789ZM93.86 261.746C91.9693 260.847 90.0715 259.891 88.2199 258.903L88.7136 257.981C90.5514 258.961 92.4344 259.91 94.3107 260.803L93.86 261.746ZM221.224 257.069L220.705 256.161C222.512 255.132 224.315 254.051 226.064 252.946L226.624 253.83C224.862 254.943 223.045 256.033 221.224 257.069ZM82.7182 255.805C80.9199 254.737 79.119 253.611 77.3659 252.459L77.9425 251.585C79.682 252.729 81.4691 253.847 83.2539 254.906L82.7182 255.805ZM231.871 250.346L231.272 249.489C232.973 248.303 234.67 247.06 236.317 245.797L236.956 246.626C235.297 247.899 233.586 249.151 231.871 250.346ZM72.174 248.873C70.4829 247.647 68.7935 246.363 67.1525 245.055L67.8064 244.238C69.4348 245.536 71.1114 246.81 72.7895 248.027L72.174 248.873ZM241.866 242.679L241.191 241.879C242.776 240.544 244.354 239.152 245.881 237.743L246.592 238.511C245.054 239.931 243.464 241.333 241.866 242.679ZM62.3116 241.013C60.7366 239.636 59.1718 238.205 57.661 236.757L58.3865 236.002C59.886 237.439 61.4388 238.86 63.0018 240.227L62.3116 241.013ZM251.125 234.131L250.379 233.397C251.84 231.918 253.286 230.389 254.675 228.85L255.454 229.549C254.054 231.1 252.598 232.642 251.125 234.131V234.131ZM53.2104 232.295C51.7653 230.778 50.3382 229.21 48.9686 227.636L49.76 226.95C51.1191 228.513 52.5353 230.069 53.9696 231.574L53.2104 232.295ZM259.57 224.775L258.761 224.112C260.081 222.508 261.381 220.853 262.626 219.191L263.465 219.817C262.211 221.491 260.901 223.16 259.57 224.775ZM44.9444 222.79C43.6467 221.153 42.3689 219.464 41.1464 217.768L41.9967 217.157C43.21 218.84 44.4781 220.517 45.7661 222.141L44.9444 222.79ZM267.129 214.686L266.262 214.099C267.431 212.382 268.575 210.614 269.664 208.845L270.557 209.392C269.459 211.175 268.306 212.956 267.129 214.686ZM37.583 212.579C36.4413 210.833 35.3239 209.035 34.2616 207.235L35.1641 206.704C36.2185 208.49 37.3275 210.274 38.4604 212.007L37.583 212.579ZM273.738 203.946L272.821 203.44C273.827 201.623 274.804 199.757 275.727 197.894L276.666 198.358C275.737 200.235 274.752 202.115 273.738 203.946ZM31.1891 201.747C30.2119 199.903 29.2644 198.012 28.3729 196.126L29.3204 195.679C30.2052 197.551 31.1453 199.428 32.1151 201.258L31.1891 201.747ZM279.334 192.64L278.374 192.22C279.209 190.317 280.011 188.368 280.757 186.427L281.735 186.802C280.983 188.758 280.175 190.722 279.334 192.64V192.64ZM25.8186 190.383C25.0153 188.459 24.2461 186.49 23.5324 184.532L24.5173 184.174C25.2253 186.118 25.9887 188.071 26.7855 189.981L25.8186 190.383ZM283.865 180.858L282.87 180.529C283.524 178.563 284.141 176.553 284.704 174.554L285.713 174.837C285.145 176.851 284.523 178.877 283.865 180.858L283.865 180.858ZM21.5141 178.566C20.8907 176.573 20.3048 174.537 19.773 172.514L20.7865 172.248C21.3142 174.256 21.8957 176.277 22.5142 178.255L21.5141 178.566ZM287.28 168.738L286.259 168.501C286.728 166.486 287.157 164.427 287.534 162.384L288.564 162.573C288.185 164.632 287.752 166.706 287.28 168.738L287.28 168.738ZM18.3138 166.388C17.8769 164.345 17.4814 162.264 17.1386 160.202L18.1721 160.03C18.5126 162.078 18.905 164.143 19.3386 166.169L18.3138 166.388ZM289.563 156.357L288.524 156.215C288.806 154.166 289.044 152.078 289.232 150.007L290.276 150.101C290.086 152.188 289.846 154.293 289.563 156.357L289.563 156.357ZM16.2489 153.969C16.0018 151.899 15.799 149.79 15.6457 147.702L16.691 147.625C16.8427 149.698 17.0443 151.79 17.2896 153.845L16.2489 153.969ZM290.702 143.82L289.656 143.773C289.749 141.7 289.796 139.598 289.796 137.526H290.844C290.844 139.614 290.796 141.732 290.702 143.82L290.702 143.82ZM15.3283 141.413C15.2925 140.131 15.2743 138.823 15.2741 137.526C15.2741 136.721 15.281 135.918 15.2948 135.116L16.3426 135.134C16.3288 135.93 16.3219 136.727 16.3219 137.526C16.3221 138.813 16.3403 140.112 16.3756 141.385L15.3283 141.413ZM289.789 136.067C289.767 133.993 289.697 131.892 289.582 129.82L290.628 129.762C290.744 131.849 290.814 133.967 290.836 136.056L289.789 136.067ZM16.5913 128.891L15.5456 128.825C15.6763 126.736 15.8569 124.625 16.0817 122.552L17.1234 122.665C16.9001 124.722 16.7213 126.817 16.5913 128.891ZM289.092 123.591C288.883 121.529 288.623 119.443 288.319 117.391L289.355 117.238C289.661 119.306 289.924 121.408 290.135 123.486L289.092 123.591ZM17.9391 116.47L16.9036 116.31C17.2247 114.241 17.5977 112.156 18.0123 110.112L19.0391 110.319C18.6278 112.348 18.2576 114.417 17.9391 116.47ZM287.261 111.233C286.862 109.193 286.411 107.139 285.921 105.129L286.939 104.882C287.433 106.907 287.887 108.977 288.29 111.032L287.261 111.233ZM20.421 104.225L19.4047 103.971C19.9135 101.945 20.477 99.9029 21.0797 97.9002L22.083 98.2009C21.4852 100.188 20.926 102.215 20.421 104.225ZM284.3 99.0935C283.716 97.1022 283.077 95.0992 282.402 93.1393L283.393 92.7992C284.073 94.7742 284.717 96.793 285.306 98.7994L284.3 99.0935ZM24.028 92.2433L23.0395 91.8966C23.7359 89.9196 24.4877 87.9331 25.274 85.9924L26.2456 86.3846C25.4651 88.3103 24.7189 90.2817 24.028 92.2433H24.028ZM280.231 87.2785C279.467 85.3538 278.648 83.4223 277.798 81.5372L278.754 81.1077C279.611 83.0074 280.435 84.9537 281.205 86.893L280.231 87.2785ZM28.7307 80.6361L27.7786 80.1995C28.6537 78.2973 29.5851 76.3898 30.547 74.53L31.4781 75.0094C30.5234 76.8552 29.5992 78.7482 28.7307 80.6361ZM275.103 75.9113C274.165 74.065 273.172 72.2149 272.15 70.4131L273.062 69.8978C274.092 71.7137 275.092 73.5778 276.037 75.4384L275.103 75.9113ZM34.4816 69.5164L33.5734 68.9945C34.6187 67.1829 35.7209 65.3696 36.8498 63.6053L37.7329 64.168C36.6127 65.919 35.5186 67.7186 34.4816 69.5164H34.4816ZM268.947 65.0532C267.84 63.294 266.681 61.5414 265.502 59.844L266.362 59.2481C267.551 60.9585 268.719 62.7244 269.834 64.4971L268.947 65.0532ZM41.2257 58.9751L40.3693 58.3725C41.5772 56.6626 42.8401 54.9583 44.1238 53.3068L44.9516 53.9477C43.6779 55.5869 42.4242 57.2782 41.2257 58.9751ZM261.82 54.7959C260.557 53.1452 259.242 51.5042 257.911 49.9186L258.714 49.2469C260.055 50.8447 261.381 52.498 262.653 54.1612L261.82 54.7959ZM48.9026 49.0967L48.105 48.4186C49.4605 46.8294 50.8733 45.2477 52.3041 43.7172L53.07 44.4306C51.6502 45.9496 50.2481 47.5196 48.9026 49.0967ZM253.783 45.2229C252.376 43.6937 250.915 42.1781 249.444 40.7186L250.183 39.9767C251.665 41.4476 253.136 42.9745 254.554 44.5151L253.783 45.2229ZM57.4445 39.9603L56.7119 39.2127C58.2102 37.7497 59.7606 36.3033 61.3198 34.9138L62.0176 35.6941C60.4703 37.0728 58.9316 38.5083 57.4445 39.9603H57.4445ZM244.904 36.4151C243.362 35.0187 241.769 33.6415 240.171 32.3217L240.839 31.5159C242.449 32.8456 244.054 34.2333 245.608 35.6405L244.904 36.4151ZM66.7795 31.64L66.118 30.829C67.7386 29.5118 69.4133 28.2127 71.096 26.9677L71.7202 27.8078C70.0501 29.0435 68.3878 30.3327 66.7795 31.64ZM235.255 28.4466C233.591 27.1957 231.879 25.9684 230.166 24.7987L230.757 23.9357C232.483 25.114 234.208 26.3506 235.886 27.6111L235.255 28.4466ZM76.829 24.2056L76.2442 23.338C77.9786 22.1732 79.7642 21.0326 81.5515 19.9472L82.0958 20.8409C80.3223 21.9178 78.5503 23.05 76.829 24.2056ZM224.913 21.3865C223.143 20.2927 221.324 19.2265 219.509 18.2169L220.019 17.3033C221.848 18.3206 223.68 19.3952 225.465 20.497L224.913 21.3865ZM87.5101 17.7208L87.0072 16.8031C88.8421 15.801 90.7236 14.8287 92.5992 13.9128L93.0596 14.8524C91.1983 15.7611 89.3312 16.726 87.5101 17.7208L87.5101 17.7208ZM213.963 15.2977C212.099 14.3706 210.189 13.4749 208.287 12.6357L208.71 11.6792C210.627 12.5248 212.552 13.4274 214.431 14.3617L213.963 15.2977ZM98.7329 12.2417L98.3165 11.2822C100.234 10.4526 102.196 9.65701 104.146 8.91732L104.518 9.89522C102.582 10.629 100.636 11.4185 98.7329 12.2417L98.7329 12.2417ZM202.492 10.2366C200.552 9.48569 198.566 8.76923 196.59 8.10744L196.923 7.11575C198.914 7.78291 200.915 8.50472 202.87 9.26177L202.492 10.2366ZM110.42 7.81201L110.094 6.81827C112.085 6.16668 114.117 5.55312 116.132 4.99523L116.412 6.00275C114.412 6.55655 112.396 7.16522 110.42 7.81199L110.42 7.81201ZM190.61 6.25706C188.612 5.68845 186.573 5.15889 184.552 4.68322L184.792 3.66548C186.83 4.14473 188.883 4.67837 190.897 5.25107L190.61 6.25706ZM122.481 4.47104L122.248 3.45152C124.29 2.98604 126.369 2.56195 128.429 2.19122L128.615 3.22019C126.571 3.58836 124.507 4.00913 122.481 4.47102V4.47104ZM178.427 3.39023C176.387 3.00801 174.309 2.66793 172.25 2.37939L172.395 1.34379C174.47 1.6346 176.564 1.97725 178.621 2.36229L178.427 3.39023ZM134.799 2.25224L134.661 1.21561C136.735 0.939342 138.844 0.706996 140.93 0.525724L141.021 1.56746C138.951 1.7477 136.858 1.97801 134.799 2.25223L134.799 2.25224ZM166.032 1.65222C163.968 1.45817 161.868 1.30855 159.788 1.2082L159.839 0.163414C161.934 0.264759 164.051 0.415434 166.13 0.610996L166.032 1.65222ZM147.269 1.16633L147.225 0.121541C149.151 0.0413625 151.113 0.000511371 153.059 0L153.533 0.000744823L153.53 1.04658L153.059 1.0458C151.128 1.04631 149.18 1.08691 147.269 1.16631V1.16633Z" fill="#E6E6E6"/>
<path d="M153.389 274.337V217.15C153.389 216.349 153.709 215.581 154.276 215.014C154.844 214.448 155.613 214.129 156.416 214.128H163.29C164.093 214.129 164.863 214.448 165.43 215.014C165.998 215.581 166.317 216.349 166.318 217.15V274.337C166.317 275.139 165.998 275.907 165.43 276.473C164.863 277.04 164.093 277.358 163.29 277.359H156.416C155.613 277.358 154.844 277.04 154.276 276.473C153.709 275.907 153.389 275.139 153.389 274.337Z" fill="#2F2E41"/>
<path d="M139.792 274.337V217.15C139.793 216.349 140.112 215.581 140.68 215.014C141.247 214.448 142.017 214.129 142.819 214.128H149.694C150.497 214.129 151.266 214.448 151.834 215.014C152.401 215.581 152.72 216.349 152.721 217.15V274.337C152.72 275.139 152.401 275.907 151.834 276.473C151.266 277.04 150.497 277.358 149.694 277.359H142.819C142.017 277.358 141.247 277.04 140.68 276.473C140.112 275.907 139.793 275.139 139.792 274.337Z" fill="#2F2E41"/>
<path d="M166.972 198.27H139.138C137.595 198.27 136.344 199.519 136.344 201.059V232.441C136.344 233.982 137.595 235.231 139.138 235.231H166.972C168.515 235.231 169.766 233.982 169.766 232.441V201.059C169.766 199.519 168.515 198.27 166.972 198.27Z" fill="#2F2E41"/>
<path d="M106.262 108.423C106.262 108.423 92.2158 114.936 80.3291 119.255C72.9528 102.635 62.3261 103.257 62.3261 103.257L55.8835 107.685L57.0453 114.326L56.7285 125.184L55.0386 130.877L57.4635 131.314L58.8334 131.562L59.0399 131.376C58.6981 132.727 58.5598 134.122 58.6295 135.515L119.57 126.028C119.57 126.028 117.458 116.224 106.262 108.423Z" fill="#E6E6E6"/>
<path d="M88.2673 193.905L92.3531 199.423C93.2704 200.662 95.0202 200.924 96.2614 200.009L142.338 166.019C143.58 165.104 143.842 163.357 142.925 162.118L138.839 156.6C137.922 155.361 136.172 155.099 134.931 156.015L88.8537 190.004C87.6125 190.92 87.3499 192.666 88.2673 193.905Z" fill="#E5097F"/>
<path d="M166.781 154.726L160.708 157.942C159.345 158.664 158.826 160.353 159.55 161.714L186.408 212.228C187.131 213.589 188.823 214.107 190.186 213.385L196.258 210.168C197.622 209.446 198.14 207.758 197.417 206.397L170.559 155.882C169.836 154.521 168.144 154.004 166.781 154.726Z" fill="#E5097F"/>
<path d="M183.803 177.145L173.886 183.707C172.371 184.51 170.556 184.057 169.832 182.697L158.88 162.097C158.156 160.736 158.798 158.982 160.314 158.18L167.064 154.604C168.579 153.802 170.394 154.254 171.118 155.615L185.238 173.228C185.961 174.588 185.319 176.342 183.803 177.145Z" fill="#CCCCCC"/>
<path d="M116.222 171.111L122.668 179.655C123.175 180.194 123.876 180.51 124.617 180.534C125.358 180.557 126.077 180.286 126.618 179.779L143.653 163.819C144.194 163.313 144.511 162.613 144.534 161.874C144.558 161.135 144.286 160.416 143.779 159.877L139.074 154.874C138.567 154.335 137.866 154.018 137.125 153.995C136.384 153.972 135.664 154.243 135.124 154.749L116.347 167.168C115.806 167.674 115.49 168.374 115.466 169.113C115.443 169.853 115.715 170.571 116.222 171.111Z" fill="#CCCCCC"/>
<path d="M168.672 153.904H137.437C135.894 153.904 134.643 155.153 134.643 156.693V222.928C134.643 224.468 135.894 225.717 137.437 225.717H168.672C170.216 225.717 171.467 224.468 171.467 222.928V156.693C171.467 155.153 170.216 153.904 168.672 153.904Z" fill="#CCCCCC"/>
<path d="M152.872 149.581C166.639 149.581 177.799 138.442 177.799 124.701C177.799 110.96 166.639 99.8211 152.872 99.8211C139.106 99.8211 127.945 110.96 127.945 124.701C127.945 138.442 139.106 149.581 152.872 149.581Z" fill="#E5097F"/>
<path d="M155.778 133.008C154.238 132.965 152.321 132.912 150.846 131.836C150.406 131.502 150.045 131.076 149.787 130.589C149.53 130.101 149.383 129.563 149.355 129.012C149.329 128.621 149.393 128.229 149.543 127.867C149.694 127.504 149.926 127.182 150.222 126.924C150.992 126.274 152.119 126.12 153.332 126.477L152.075 117.307L152.998 117.18L154.476 127.961L153.705 127.609C152.812 127.199 151.585 126.991 150.823 127.634C150.636 127.802 150.49 128.011 150.397 128.244C150.304 128.478 150.266 128.729 150.286 128.98C150.309 129.389 150.42 129.79 150.611 130.153C150.802 130.516 151.07 130.834 151.395 131.085C152.543 131.922 154.071 132.03 155.804 132.079L155.778 133.008Z" fill="#2F2E41"/>
<path d="M147.511 118.098H142.494V119.027H147.511V118.098Z" fill="#2F2E41"/>
<path d="M163.347 118.098H158.33V119.027H163.347V118.098Z" fill="#2F2E41"/>
<path d="M136.405 105.259C132.365 104.799 129.236 100.935 128.892 97.0148C128.484 92.351 131.205 87.9215 134.938 85.3044C138.842 82.5675 143.706 81.4246 148.412 81.173C157.593 80.717 166.616 83.6853 173.726 89.5007C177.252 92.4241 180.545 96.148 181.794 100.646C182.878 104.552 181.996 108.978 178.848 111.714C178.069 112.384 177.16 112.886 176.177 113.188C175.194 113.49 174.159 113.586 173.138 113.468C170.695 113.215 168.442 111.933 166.491 110.518C162.697 107.764 159.582 103.928 154.959 102.489C151.569 101.434 147.17 102.363 145.099 105.422C144.629 106.123 144.324 106.92 144.208 107.755C144.165 107.933 144.192 108.121 144.282 108.28C144.373 108.44 144.521 108.558 144.696 108.613C144.875 108.661 145.065 108.637 145.226 108.546C145.387 108.455 145.505 108.304 145.555 108.126C146.099 104.272 150.847 102.834 154.178 103.715C159.035 104.998 162.296 109.324 166.281 112.072C168.376 113.518 170.759 114.673 173.329 114.88C175.544 115.054 177.743 114.38 179.478 112.995C182.883 110.311 184.185 105.696 183.432 101.541C182.56 96.7295 179.316 92.6055 175.755 89.4128C168.538 83.0085 159.168 79.5536 149.513 79.7365C144.588 79.8494 139.449 80.8642 135.207 83.4622C131.091 85.9823 127.911 90.1984 127.495 95.0991C127.129 99.4127 129.448 103.925 133.428 105.814C134.366 106.258 135.373 106.542 136.405 106.653C137.297 106.755 137.29 105.359 136.405 105.259H136.405Z" fill="#2F2E41"/>
<path d="M58.788 130.719L61.7452 129.77C62.0621 129.164 61.4822 129.553 61.759 128.963C69.2408 113.031 62.3261 103.257 62.3261 103.257L56.977 106.933C56.9638 106.903 56.953 106.872 56.9397 106.841C56.9397 106.841 55.9891 104.733 54.5105 106.314C54.5105 106.314 59.1576 117.594 53.9824 131.615L60.0026 134.355L62.3261 131.615L62.3789 131.351L58.2205 130.974L58.788 130.719Z" fill="#CCCCCC"/>
<path d="M143.122 189.91C119.359 184.64 97.2322 195.55 97.2322 195.55L97.172 195.496L88.3605 187.644L53.9296 131.562L62.3261 131.615C85.6673 117.699 118.514 119.597 118.514 119.597C132.666 135.62 143.122 189.91 143.122 189.91Z" fill="#3F3D56"/>
<path opacity="0.1" d="M97.172 195.497L88.3605 187.644L53.9296 131.562L62.3261 131.615C62.3261 131.615 95.7916 175.731 97.172 195.497Z" fill="black"/>
<path d="M101.039 151.738C108.233 149.536 112.928 144.051 111.525 139.486C110.123 134.922 103.154 133.007 95.9601 135.21C88.7662 137.412 84.0715 142.898 85.4741 147.462C86.8767 152.026 93.8454 153.941 101.039 151.738Z" fill="#E5097F"/>
<path d="M27.4852 104.37C25.5877 111.371 19.0887 115.706 19.0887 115.706C19.0887 115.706 15.6659 108.692 17.5633 101.691C19.4607 94.69 25.9598 90.3543 25.9598 90.3543C25.9598 90.3543 29.3826 97.3691 27.4852 104.37Z" fill="#CCCCCC"/>
<path d="M10.224 104.37C12.1214 111.371 18.6204 115.706 18.6204 115.706C18.6204 115.706 22.0432 108.692 20.1458 101.691C18.2484 94.69 11.7493 90.3543 11.7493 90.3543C11.7493 90.3543 8.32654 97.3691 10.224 104.37Z" fill="#CCCCCC"/>
<path d="M13.0121 102.865C18.2186 107.924 18.8546 115.701 18.8546 115.701C18.8546 115.701 11.049 115.275 5.84249 110.216C0.635937 105.158 0 97.3811 0 97.3811C0 97.3811 7.80553 97.8065 13.0121 102.865Z" fill="#3F3D56"/>
<path d="M24.697 102.865C19.4905 107.924 18.8546 115.701 18.8546 115.701C18.8546 115.701 26.6601 115.275 31.8666 110.216C37.0732 105.158 37.7091 97.3811 37.7091 97.3811C37.7091 97.3811 29.9036 97.8065 24.697 102.865Z" fill="#3F3D56"/>
<path d="M288.776 183.4C286.879 190.401 280.38 194.737 280.38 194.737C280.38 194.737 276.957 187.722 278.854 180.721C280.752 173.72 287.251 169.384 287.251 169.384C287.251 169.384 290.673 176.399 288.776 183.4Z" fill="#CCCCCC"/>
<path d="M271.515 183.4C273.412 190.401 279.911 194.737 279.911 194.737C279.911 194.737 283.334 187.722 281.437 180.721C279.539 173.72 273.04 169.384 273.04 169.384C273.04 169.384 269.617 176.399 271.515 183.4Z" fill="#CCCCCC"/>
<path d="M274.303 181.895C279.509 186.954 280.145 194.731 280.145 194.731C280.145 194.731 272.34 194.305 267.133 189.247C261.927 184.188 261.291 176.411 261.291 176.411C261.291 176.411 269.096 176.837 274.303 181.895Z" fill="#3F3D56"/>
<path d="M285.988 181.895C280.781 186.954 280.145 194.731 280.145 194.731C280.145 194.731 287.951 194.305 293.158 189.247C298.364 184.188 299 176.411 299 176.411C299 176.411 291.194 176.837 285.988 181.895Z" fill="#3F3D56"/>
<path d="M207.711 277.07H99.6551V278H207.711V277.07Z" fill="#3F3D56"/>
</g>
<defs>
<clipPath id="clip0_2_134">
<rect width="299" height="278" fill="white"/>
</clipPath>
</defs>
</svg>
