<svg width="35" height="32" viewBox="0 0 35 32" fill="none" xmlns="http://www.w3.org/2000/svg">
<path d="M34.9964 20.4472C34.9571 20.568 34.9197 20.6906 34.8776 20.8114C34.527 21.8135 33.8477 22.4212 32.8159 22.5033C32.0452 22.5655 31.2636 22.5287 30.4929 22.5354C30.3459 22.5354 30.1989 22.5354 30.0054 22.5354C30.0054 23.2497 30.0163 23.9413 30.0054 24.632C29.9907 25.4143 29.6301 25.9851 28.9288 26.2814C28.3243 26.5362 27.7473 26.4296 27.2231 26.021C25.8416 24.9425 24.4546 23.8715 23.0795 22.7854C22.8696 22.606 22.6019 22.515 22.3298 22.5306C21.9436 22.5504 21.5564 22.5354 21.1218 22.5354V23.0071C21.1218 23.8312 21.1218 24.6556 21.1218 25.4803C21.1218 27.058 20.1402 28.0978 18.6126 28.1176C17.3827 28.1337 16.1473 28.1176 14.9219 28.1176C14.1238 28.1176 13.3267 28.1082 12.5296 28.1252C12.3521 28.1315 12.1802 28.1909 12.0347 28.296C10.6181 29.3836 9.20709 30.4798 7.80152 31.5844C7.23357 32.0269 6.61449 32.1336 5.97532 31.8194C5.34255 31.5127 5.01292 30.9701 4.99557 30.2473C4.98005 29.5547 4.99557 28.8621 4.99557 28.1176C4.83669 28.1176 4.70522 28.1176 4.57373 28.1176C3.76564 28.1092 2.95389 28.1393 2.14854 28.0837C1.57334 28.0375 1.03552 27.7711 0.640339 27.3367C0.24516 26.9023 0.0210496 26.3312 0.0118703 25.7351C-0.00395676 21.9318 -0.00395676 18.1281 0.0118703 14.3242C0.0173489 12.9786 1.08295 11.9548 2.44438 11.9407C3.78846 11.9265 5.13253 11.9407 6.47753 11.9407H6.92039C6.92861 11.7642 6.94139 11.617 6.94139 11.4689C6.94139 8.52615 6.94139 5.58245 6.94139 2.63781C6.94139 1.41114 7.52669 0.497745 8.54206 0.147672C8.83416 0.0510348 9.13932 0.00325275 9.44601 0.00613335C14.8126 -0.00204445 20.1789 -0.00204445 25.5449 0.00613335C27.0551 0.00613335 28.0458 1.02899 28.0623 2.59252C28.0732 3.71162 28.0623 4.82978 28.0623 5.94888V6.36406H32.3411C33.7728 6.36406 34.559 6.97079 34.9635 8.38524C34.9735 8.4061 34.9857 8.42573 35 8.44374L34.9964 20.4472ZM27.9335 23.9224C27.9472 23.8281 27.9536 23.8083 27.9536 23.7847C27.9536 23.0927 27.9536 22.3979 27.9536 21.7003C27.9536 20.8048 28.3298 20.4208 29.2064 20.4198C30.2665 20.4198 31.3257 20.4198 32.3849 20.4198C32.8624 20.4198 32.9437 20.333 32.9437 19.8452V9.06557C32.9437 8.5447 32.878 8.47582 32.3712 8.47582H16.5116C15.9829 8.47582 15.9217 8.53999 15.9217 9.08444V19.7518C15.9217 20.3585 15.9765 20.4123 16.5609 20.4123C18.6464 20.4123 20.731 20.4189 22.8165 20.4066C23.2163 20.3918 23.6077 20.5276 23.9177 20.7888C24.4144 21.2011 24.9322 21.587 25.4417 21.9834L27.9335 23.9224ZM19.0673 22.5391C18.1588 22.5391 17.2941 22.5457 16.4294 22.5391C14.8607 22.524 13.8727 21.4946 13.8727 19.8801C13.8727 18.0784 13.8727 16.2774 13.8727 14.4771V14.0845C13.7485 14.0751 13.66 14.0628 13.5714 14.0628C9.9044 14.0628 6.23738 14.0628 2.57038 14.0628C2.12022 14.0628 2.04626 14.1459 2.04626 14.629V25.3284C2.04626 25.9408 2.10196 26.0002 2.68543 26.0002C3.76745 26.0002 4.84947 25.9955 5.9315 26.0002C6.62728 26.0049 7.03179 26.4314 7.04001 27.1448C7.04001 27.309 7.04001 27.4741 7.04001 27.6392V29.5076C7.18611 29.4009 7.2774 29.3368 7.36597 29.2679C8.61235 28.2979 9.8624 27.3345 11.0996 26.3541C11.3946 26.112 11.7622 25.9845 12.1387 25.9936C14.2224 26.0031 16.307 25.9983 18.3907 25.9936C18.5049 25.9936 18.6437 26.0304 18.7258 25.9766C18.861 25.8889 19.0527 25.7426 19.0555 25.6162C19.0792 24.6103 19.0673 23.5988 19.0673 22.5354V22.5391ZM25.9877 6.35934C25.9959 6.19516 26.006 6.09136 26.006 5.98191C26.006 4.88734 26.006 3.79277 26.006 2.69821C26.006 2.183 25.9375 2.11507 25.4243 2.11507H9.57021C9.04609 2.11507 8.98581 2.17828 8.98581 2.73028C8.98581 5.66234 8.98581 8.59346 8.98581 11.5236V11.9171H13.8727V11.5548C13.8727 10.731 13.9102 9.90442 13.8645 9.0835C13.7814 7.59922 14.8552 6.31122 16.528 6.33953C19.523 6.39142 22.5189 6.35463 25.5138 6.35463L25.9877 6.35934Z" fill="#E5097F"/>
</svg>
