<svg width="153" height="128" viewBox="0 0 153 128" fill="none" xmlns="http://www.w3.org/2000/svg">
<path fill-rule="evenodd" clip-rule="evenodd" d="M1.18875 69.2971H21.3321V72.4585C20.7424 72.2802 20.1433 72.177 19.5068 72.177H7.92815V86.9989H19.1979C20.0123 86.9989 20.7236 86.9145 21.3321 86.7457V89.9164C20.8172 89.7945 20.1339 89.7382 19.2541 89.7382H7.92815V105.085H19.1698C19.797 105.085 20.5177 104.992 21.3321 104.804V108.219H1.21683C1.3666 107.646 1.44148 107.037 1.44148 106.371V71.1733C1.44148 70.3947 1.35724 69.7755 1.18875 69.2971ZM43.1415 104.147C41.9153 105.592 40.8014 106.605 39.8092 107.196C38.0214 108.237 35.9902 108.763 33.7157 108.763C31.3756 108.763 29.5036 108.087 28.0808 106.718C26.3398 105.057 25.4599 102.853 25.4599 100.067C25.4599 96.7645 26.7048 94.2973 29.1947 92.6557C30.2898 91.9239 31.3288 91.3799 32.3116 91.014C33.2758 90.6388 35.4941 89.9352 38.9481 88.8939C40.3896 88.453 41.4192 87.9183 42.0182 87.271C42.636 86.6425 42.9356 85.7794 42.9356 84.6631C42.9356 83.3685 42.4207 82.3272 41.4005 81.5205C40.3708 80.7137 39.0417 80.3103 37.3849 80.3103C35.9622 80.3103 34.6985 80.5261 33.594 80.9858C32.4708 81.4454 31.1135 82.2897 29.5036 83.528L28.5395 79.6443C30.5987 78.678 32.3865 78.0214 33.8842 77.6555C35.3912 77.299 37.1041 77.1114 39.0604 77.1114C42.1961 77.1114 44.611 77.7306 46.3146 78.9501C48.0182 80.179 48.8793 81.9145 48.8793 84.1471V102.205C48.8793 103.96 49.469 104.832 50.6671 104.832C51.1352 104.832 51.7997 104.523 52.6515 103.894V107.252C51.079 108.266 49.5813 108.763 48.1679 108.763C46.6797 108.763 45.5751 108.425 44.8263 107.731C44.0775 107.055 43.5159 105.855 43.1415 104.147ZM42.9356 90.0853C42.1774 90.5074 41.6251 90.7889 41.2694 90.9483C40.9231 91.089 39.4161 91.6707 36.7578 92.6744C34.6892 93.4624 33.257 94.4287 32.4614 95.5919C31.6471 96.7739 31.2352 98.0591 31.2352 99.4756C31.2352 101.089 31.6845 102.384 32.5925 103.369C33.491 104.344 34.6892 104.832 36.1962 104.832C38.5269 104.832 40.3521 103.875 41.6813 101.952C42.5143 100.733 42.9356 99.4193 42.9356 98.0122V90.0853ZM56.9572 111.099L55.4783 106.718L61.9931 101.943C60.2146 100.939 58.848 99.8884 57.9307 98.7814C56.2552 96.8208 55.4222 94.1285 55.4222 90.6857C55.4222 86.2766 56.6951 82.8807 59.2411 80.4792C61.6093 78.2559 64.7637 77.1396 68.7044 77.1396C69.3596 77.1396 70.3892 77.1865 71.8026 77.2521C72.6825 76.8863 73.3845 76.2765 73.8806 75.4041C74.3954 74.5223 74.7043 73.4435 74.7979 72.1489H80.4609C80.2737 73.5185 79.8712 74.6067 79.2534 75.4041C78.6356 76.2015 77.4656 77.1208 75.7714 78.1621C77.5311 79.0251 78.9164 80.0758 79.918 81.3329C81.8088 83.7062 82.7635 86.6988 82.7635 90.3104C82.7635 94.0816 81.6871 97.1022 79.5155 99.4099C77.8306 101.211 75.4906 102.393 72.4953 102.947C71.8869 103.04 70.6326 103.181 68.7418 103.378C67.5624 103.491 66.5328 103.81 65.6716 104.344L60.1397 107.731C65.4002 106.483 69.369 105.855 72.0366 105.855C75.1442 105.855 77.8587 106.333 80.152 107.281C81.3033 107.759 82.2206 108.425 82.8758 109.288C83.5498 110.161 83.8774 111.117 83.8774 112.168C83.8774 114.157 82.7916 115.705 80.6013 116.83C78.4203 117.937 75.3689 118.491 71.4469 118.491C67.3471 118.491 62.4049 117.618 56.6203 115.864V114.72C61.1319 115.92 65.0539 116.521 68.3955 116.521C70.7543 116.521 72.6638 116.192 74.1146 115.526C75.6029 114.86 76.3424 113.941 76.3424 112.787C76.3424 111.708 75.5561 110.855 73.9929 110.226C72.4298 109.598 70.3237 109.279 67.656 109.279C64.5297 109.279 60.9541 109.888 56.9572 111.099ZM69.1069 80.2165C66.5983 80.2165 64.7543 81.164 63.5656 83.0402C62.4236 84.8507 61.8527 87.1959 61.8527 90.0853C61.8527 93.3592 62.4704 95.8827 63.7154 97.6463C64.9603 99.4099 66.7387 100.301 69.0507 100.301C71.5125 100.301 73.3283 99.3724 74.5171 97.5338C75.7339 95.5825 76.333 93.1059 76.333 90.1134C76.333 86.9896 75.7059 84.5787 74.4422 82.8526C73.1786 81.1359 71.4001 80.254 69.1069 80.2165ZM94.6604 66.2389C94.5106 66.7924 94.4358 67.4209 94.4358 68.1245V106.342C94.4358 106.99 94.5106 107.609 94.6604 108.219H88.2673C88.4171 107.628 88.492 107.009 88.492 106.342V68.1245C88.492 67.4397 88.4171 66.8205 88.2673 66.2389H94.6604ZM126.354 106.202C124.398 107.168 122.676 107.843 121.169 108.209C119.68 108.585 117.93 108.763 115.936 108.763C110.76 108.763 106.838 107.252 104.161 104.204C101.765 101.53 100.576 97.8433 100.576 93.1622C100.576 87.9933 101.943 83.9783 104.676 81.1077C107.194 78.4435 110.535 77.1114 114.71 77.1114C118.754 77.1114 121.908 78.3872 124.164 80.9482C126.42 83.5092 127.627 87.1678 127.805 91.9333H106.782C106.782 95.2636 107.147 97.9278 107.886 99.9259C109.337 103.903 112.276 105.883 116.732 105.883C119.793 105.883 122.704 104.71 125.474 102.346L126.354 106.202ZM106.95 89.2598H121.468C121.309 87.5243 121.066 86.1265 120.729 85.0383C120.214 83.4248 119.334 82.1302 118.108 81.1359C117.088 80.3197 115.852 79.9069 114.401 79.9069C112.351 79.9069 110.676 80.7231 109.375 82.3648C108.064 83.997 107.259 86.2954 106.95 89.2598ZM131.109 106.164L132.13 102.027C133.852 103.444 135.359 104.429 136.651 104.992C137.942 105.545 139.356 105.827 140.891 105.827C142.791 105.827 144.26 105.292 145.309 104.232C146.273 103.219 146.75 102.065 146.75 100.761C146.75 99.4662 146.301 98.4437 145.374 97.6932C144.448 96.9334 142.463 95.9484 139.384 94.7289C136.37 93.5375 134.348 92.2054 133.318 90.7138C132.382 89.3254 131.905 87.7869 131.905 86.0984C131.905 82.9276 133.262 80.5073 135.977 78.8563C137.867 77.7024 140.123 77.1114 142.716 77.1114C145.599 77.1114 148.613 77.7869 151.767 79.1377L150.766 82.8995C148.079 80.9576 145.59 79.9914 143.315 79.9914C141.686 79.9914 140.357 80.4229 139.337 81.2766C138.232 82.1771 137.68 83.3029 137.68 84.6631C137.68 85.8169 138.092 86.7175 138.906 87.3929C139.721 88.0778 141.462 88.9127 144.111 89.9258C147.256 91.1359 149.455 92.4118 150.691 93.7626C151.917 95.0947 152.535 96.8677 152.535 99.0722C152.535 102.224 151.327 104.71 148.922 106.521C146.928 108.022 144.242 108.763 140.872 108.763C137.587 108.763 134.329 107.9 131.109 106.164Z" fill="url(#paint0_linear_1_70)"/>
<path d="M20.2743 122.6H20.8172V127.881H20.2743V122.6ZM26.7703 122.6V127.881H26.3304L23.0356 123.594V127.881H22.4927V122.6H22.9326L26.2368 126.887V122.6H26.7703ZM29.8592 127.928C29.4755 127.928 29.1104 127.862 28.7641 127.74C28.4084 127.609 28.1463 127.45 27.9497 127.243L28.165 126.812C28.3522 126.999 28.5956 127.159 28.9045 127.271C29.2134 127.393 29.5316 127.45 29.8592 127.45C30.3179 127.45 30.6549 127.365 30.8889 127.187C31.1135 127.018 31.2352 126.793 31.2352 126.512C31.2352 126.305 31.1697 126.136 31.048 126.005C30.9169 125.883 30.7672 125.789 30.5893 125.724C30.4115 125.648 30.1588 125.573 29.8312 125.498C29.4474 125.395 29.1385 125.301 28.9139 125.208C28.6798 125.114 28.4833 124.973 28.3242 124.776C28.1557 124.588 28.0808 124.326 28.0808 124.007C28.0808 123.735 28.1463 123.491 28.2774 123.275C28.4178 123.059 28.6237 122.881 28.9139 122.75C29.1947 122.618 29.5503 122.553 29.9622 122.553C30.2617 122.553 30.5425 122.6 30.8233 122.675C31.1042 122.759 31.3475 122.872 31.5534 123.022L31.3756 123.463C31.1603 123.322 30.9263 123.209 30.6829 123.134C30.4396 123.069 30.1962 123.031 29.9622 123.031C29.5129 123.031 29.1759 123.116 28.9513 123.294C28.7266 123.472 28.6143 123.707 28.6143 123.988C28.6143 124.194 28.6705 124.373 28.8015 124.495C28.9232 124.626 29.0823 124.72 29.2695 124.795C29.4567 124.86 29.7095 124.936 30.0277 125.011C30.4021 125.104 30.7017 125.208 30.9357 125.292C31.1697 125.386 31.3662 125.527 31.5254 125.724C31.6845 125.911 31.7687 126.164 31.7687 126.483C31.7687 126.755 31.6939 126.99 31.5534 127.215C31.4224 127.431 31.2071 127.609 30.9169 127.731C30.6268 127.862 30.2711 127.928 29.8592 127.928ZM33.9403 123.078H32.1431V122.6H36.2804V123.078H34.4832V127.881H33.9403V123.078ZM37.1509 122.6H37.6938V127.881H37.1509V122.6ZM40.3521 123.078H38.5549V122.6H42.7015V123.078H40.895V127.881H40.3521V123.078ZM45.6313 127.928C44.9667 127.928 44.4425 127.731 44.0775 127.337C43.7031 126.943 43.5159 126.371 43.5159 125.62V122.6H44.0588V125.602C44.0588 126.211 44.1898 126.671 44.4613 126.971C44.7327 127.281 45.1165 127.431 45.6313 127.431C46.1367 127.431 46.5299 127.281 46.8013 126.971C47.0634 126.671 47.2038 126.211 47.2038 125.602V122.6H47.728V125.62C47.728 126.371 47.5408 126.943 47.1757 127.337C46.8107 127.731 46.2865 127.928 45.6313 127.928ZM50.3582 123.078H48.5517V122.6H52.6983V123.078H50.9011V127.881H50.3582V123.078ZM57.1912 127.393V127.881H53.5594V122.6H57.0789V123.078H54.1023V124.964H56.7607V125.433H54.1023V127.393H57.1912ZM62.6202 127.928C62.1147 127.928 61.6561 127.806 61.2442 127.572C60.8324 127.337 60.5048 127.018 60.2708 126.615C60.0461 126.202 59.9244 125.752 59.9244 125.236C59.9244 124.729 60.0461 124.269 60.2708 123.866C60.5048 123.463 60.8324 123.134 61.2442 122.909C61.6561 122.675 62.1147 122.553 62.6202 122.553C63.1256 122.553 63.5843 122.665 63.9961 122.9C64.3986 123.134 64.7262 123.453 64.9602 123.866C65.1943 124.269 65.3066 124.729 65.3066 125.236C65.3066 125.752 65.1943 126.211 64.9602 126.615C64.7262 127.027 64.3986 127.346 63.9961 127.581C63.5843 127.806 63.1256 127.928 62.6202 127.928ZM62.6202 127.431C63.0227 127.431 63.3877 127.337 63.7153 127.149C64.0429 126.952 64.305 126.699 64.4922 126.361C64.6701 126.024 64.7637 125.648 64.7637 125.236C64.7637 124.823 64.6701 124.457 64.4922 124.119C64.305 123.782 64.0429 123.519 63.7153 123.331C63.3877 123.144 63.0227 123.05 62.6202 123.05C62.2177 123.05 61.8526 123.144 61.5157 123.331C61.1881 123.519 60.9353 123.782 60.7388 124.119C60.5516 124.457 60.458 124.823 60.458 125.236C60.458 125.648 60.5516 126.024 60.7388 126.361C60.9353 126.699 61.1881 126.952 61.5157 127.149C61.8526 127.337 62.2177 127.431 62.6202 127.431ZM67.0663 123.078V125.161H69.7153V125.639H67.0663V127.881H66.5234V122.6H70.0429V123.078H67.0663ZM80.3204 122.6V127.881H79.7963V123.66L77.7838 127.206H77.5311L75.5186 123.678V127.881H74.9945V122.6H75.4437L77.6715 126.512L79.8712 122.6H80.3204ZM85.2065 126.474H82.3423L81.7338 127.881H81.1722L83.5123 122.6H84.0458L86.3859 127.881H85.8149L85.2065 126.474ZM85.0006 126.014L83.7744 123.181L82.5482 126.014H85.0006ZM91.5247 122.6V127.881H91.0754L87.7806 123.594V127.881H87.2377V122.6H87.687L90.9818 126.887V122.6H91.5247ZM96.4014 126.474H93.5465L92.9381 127.881H92.3671L94.7165 122.6H95.2501L97.5901 127.881H97.0192L96.4014 126.474ZM96.2048 126.014L94.9786 123.181L93.7431 126.014H96.2048ZM102.046 125.236H102.57V127.253C102.326 127.468 102.046 127.637 101.718 127.75C101.39 127.872 101.053 127.928 100.688 127.928C100.174 127.928 99.7149 127.806 99.3031 127.581C98.8912 127.346 98.573 127.027 98.339 126.615C98.105 126.211 97.9833 125.752 97.9833 125.236C97.9833 124.729 98.105 124.269 98.339 123.866C98.573 123.453 98.8912 123.134 99.3031 122.9C99.7149 122.665 100.174 122.553 100.698 122.553C101.082 122.553 101.447 122.618 101.774 122.75C102.102 122.872 102.373 123.069 102.598 123.313L102.261 123.669C101.858 123.256 101.344 123.05 100.716 123.05C100.305 123.05 99.9302 123.144 99.5932 123.331C99.2563 123.519 98.9942 123.782 98.807 124.119C98.6198 124.457 98.5168 124.823 98.5168 125.236C98.5168 125.648 98.6198 126.024 98.807 126.352C98.9942 126.69 99.2563 126.952 99.5932 127.14C99.9209 127.328 100.295 127.431 100.707 127.431C101.241 127.431 101.681 127.29 102.046 127.018V125.236ZM107.727 127.393V127.881H104.096V122.6H107.615V123.078H104.638V124.964H107.297V125.433H104.638V127.393H107.727ZM114.317 122.6V127.881H113.802V123.66L111.79 127.206H111.528L109.515 123.678V127.881H109V122.6H109.44L111.668 126.512L113.877 122.6H114.317ZM119.615 127.393V127.881H115.992V122.6H119.503V123.078H116.535V124.964H119.184V125.433H116.535V127.393H119.615ZM125.175 122.6V127.881H124.726L121.431 123.594V127.881H120.888V122.6H121.337L124.641 126.887V122.6H125.175ZM127.833 123.078H126.036V122.6H130.183V123.078H128.376V127.881H127.833V123.078Z" fill="#393185"/>
<path fill-rule="evenodd" clip-rule="evenodd" d="M2.08734 123.725C3.08889 123.725 3.92195 124.429 4.12788 125.367H16.8766V126.258H4.12788C3.92195 127.196 3.08889 127.909 2.08734 127.909C0.936027 127.909 0 126.971 0 125.817C0 124.654 0.936027 123.725 2.08734 123.725ZM147.537 123.725C148.688 123.725 149.624 124.654 149.624 125.817C149.624 126.971 148.688 127.909 147.537 127.909C146.535 127.909 145.702 127.196 145.496 126.258H132.757V125.367H145.496C145.702 124.429 146.535 123.725 147.537 123.725Z" fill="#393185"/>
<path fill-rule="evenodd" clip-rule="evenodd" d="M59.2149 60.6854C60.544 60.2351 60.5815 59.9255 62.3225 59.9255C65.505 59.9255 66.572 61.4359 66.8248 64.4378C68.3224 63.434 70.1758 61.858 72.6094 61.858C75.3894 61.858 76.1195 65.132 77.2334 67.0832C78.1601 64.6535 79.0493 61.858 82.2505 61.858C83.7762 61.858 86.3597 63.7436 87.3986 64.4378C87.4922 60.1038 89.4673 59.9255 93.8198 59.9255C92.1256 57.3833 84.1787 52.3176 84.1787 48.978C84.1787 43.6965 106.119 41.7546 112.231 39.7096C121.461 36.6232 128.902 31.6795 133.039 23.8464C127.779 26.2573 122.93 28.8277 117.838 30.657C114.515 31.8483 111.464 32.8896 107.42 33.4431C118.559 29.2873 135.108 24.2122 138.187 10.957C130.69 15.9851 121.33 23.6306 111.829 23.8464C122.135 19.2497 138.365 13.3116 139.47 0C131.354 9.37157 118.896 14.0996 104.753 17.4017V16.1165C97.6294 17.7769 89.5047 22.7582 86.135 28.5369C83.121 33.7151 85.4704 40.113 82.4751 44.8503C80.8558 47.4207 77.7014 51.7547 77.1117 52.1956L72.6094 46.3982C68.3505 40.0285 73.0587 33.6307 66.3474 26.2479C63.2211 22.8051 54.9091 16.5668 49.4615 16.1165V17.4017C37.7518 16.426 20.8003 6.98881 14.7442 0C15.8862 13.8275 29.6271 16.3416 38.5287 22.5518C31.6208 21.6606 21.2309 14.4467 16.0266 10.957C17.3651 16.7262 22.8034 21.7169 27.3432 24.747C31.5834 27.5706 42.9186 31.642 44.3133 32.8615C35.5896 32.6739 26.8377 25.3567 21.1747 23.8464C24.9937 31.0791 32.847 36.8202 41.3742 39.6814C51.5114 43.0773 60.778 42.0642 69.0338 47.0455C74.0977 50.1037 61.4613 58.5653 59.2149 60.6854Z" fill="url(#paint1_linear_1_70)"/>
<path fill-rule="evenodd" clip-rule="evenodd" d="M77.1117 31.6982C81.7076 25.1597 88.5593 19.1934 95.748 15.7506C94.6248 15.6662 93.5015 15.5818 92.3689 15.4973C86.2848 18.9964 80.7248 25.7882 77.1117 31.6982Z" fill="#00A0E3"/>
<path fill-rule="evenodd" clip-rule="evenodd" d="M77.1117 31.6982C72.5064 25.1597 65.6547 19.1934 58.466 15.7506C59.5893 15.6662 60.7219 15.5818 61.8451 15.4973C67.9293 18.9964 73.4893 25.7882 77.1117 31.6982Z" fill="#00A0E3"/>
<path fill-rule="evenodd" clip-rule="evenodd" d="M77.1117 31.6982C79.7138 25.9571 84.0757 20.2441 89.018 16.3416C88.1662 16.4823 87.3144 16.623 86.4626 16.7731C82.3534 20.5068 79.0586 26.6138 77.1117 31.6982Z" fill="#00A0E3"/>
<path fill-rule="evenodd" clip-rule="evenodd" d="M77.1117 31.6982C74.5002 25.9571 70.1383 20.2441 65.1961 16.3416C66.0479 16.4823 66.8996 16.623 67.7608 16.7731C71.8606 20.5068 75.1554 26.6138 77.1117 31.6982Z" fill="#00A0E3"/>
<path fill-rule="evenodd" clip-rule="evenodd" d="M77.1117 31.6982L77.2147 20.6662L84.759 17.1578C84.759 17.1578 78.366 24.0246 77.1117 31.6982Z" fill="#00A0E3"/>
<path fill-rule="evenodd" clip-rule="evenodd" d="M77.1024 31.6982L76.99 20.6662L69.455 17.1578C69.455 17.1578 75.8481 24.0246 77.1024 31.6982Z" fill="#00A0E3"/>
<path d="M77.1117 40.7321V40.7415C77.6733 40.7415 78.1881 40.9666 78.5626 41.3419C78.937 41.7171 79.1616 42.233 79.171 42.7959V42.8053C79.171 43.3681 78.937 43.8935 78.5626 44.2593C78.1881 44.6346 77.6733 44.8691 77.1117 44.8691H77.1024C76.5407 44.8691 76.0259 44.6346 75.6515 44.2593C75.2771 43.8841 75.0525 43.3775 75.0431 42.8053V42.7959C75.0525 42.233 75.2771 41.7171 75.6515 41.3419C76.0259 40.9666 76.5314 40.7415 77.1024 40.7415V40.7321H77.1117ZM77.1117 41.3043H77.1024C76.6905 41.3043 76.3254 41.4732 76.054 41.7452C75.7826 42.0173 75.6141 42.3831 75.6141 42.7959V42.8053C75.6141 43.2181 75.7826 43.5933 76.054 43.856C76.3254 44.128 76.6905 44.2969 77.1024 44.2969H77.1117C77.5236 44.2969 77.8886 44.128 78.1601 43.856C78.4315 43.5933 78.6 43.2181 78.6 42.8053V42.7959C78.6 42.3831 78.4315 42.0173 78.1601 41.7452C77.8886 41.4732 77.5236 41.3043 77.1117 41.3043Z" fill="#00A0E3"/>
<defs>
<linearGradient id="paint0_linear_1_70" x1="1.1909" y1="92.3658" x2="152.533" y2="92.3658" gradientUnits="userSpaceOnUse">
<stop stop-color="#393185"/>
<stop offset="1" stop-color="#E5097F"/>
</linearGradient>
<linearGradient id="paint1_linear_1_70" x1="14.7431" y1="33.5422" x2="139.472" y2="33.5422" gradientUnits="userSpaceOnUse">
<stop stop-color="#00A0E3"/>
<stop offset="1" stop-color="#E5097F"/>
</linearGradient>
</defs>
</svg>
