<svg width="30" height="31" viewBox="0 0 30 31" fill="none" xmlns="http://www.w3.org/2000/svg">
<path d="M15.4351 0C15.6468 0.0469109 15.8601 0.0881601 16.0693 0.141541C16.9038 0.346354 17.6636 0.770131 18.2646 1.36608C19.5581 2.65532 20.8582 3.94132 22.1383 5.24108C23.041 6.15422 23.43 7.2631 23.4259 8.51918C23.4175 11.092 23.4259 13.6656 23.4259 16.2384V16.6162C23.8383 16.7108 24.2458 16.7868 24.6415 16.8984C27.8149 17.7938 30.2988 20.7807 29.9709 24.4381C29.6739 27.7494 27.0293 30.3716 23.7798 30.89C21.4087 31.2677 19.3213 30.6684 17.505 29.1583C17.3676 29.0608 17.201 29.0094 17.0306 29.0119C12.322 29.0049 7.61341 29.0025 2.90481 29.0047C1.48253 29.0047 0.368126 28.1554 0.0711199 26.8532C0.0186541 26.5868 -0.0043491 26.3156 0.00250991 26.0444C-0.000836638 18.3554 -0.000836638 10.666 0.00250991 2.97642C0.00250991 1.3863 0.765523 0.440801 2.36601 0.0380141C2.38442 0.03397 2.39865 0.0145584 2.41454 0.00242633L15.4351 0ZM21.5284 16.6339C21.5342 16.5361 21.5426 16.4568 21.5426 16.3784C21.5426 13.7441 21.5384 11.1106 21.5426 8.47712C21.5486 8.0777 21.47 7.68131 21.3118 7.31231C21.1535 6.94331 20.9189 6.60949 20.6223 6.33135C19.4237 5.14995 18.2331 3.96073 17.0507 2.7637C16.7568 2.45516 16.3982 2.21078 15.9989 2.0469C15.5995 1.88301 15.1686 1.80339 14.7349 1.81335C10.8205 1.82144 6.90561 1.82144 2.99015 1.81335C2.2171 1.81335 1.8657 2.15224 1.8657 2.90524C1.8657 10.6342 1.8657 18.3637 1.8657 26.0938C1.8657 26.846 2.21793 27.1849 2.99099 27.1849H15.866C13.4038 22.5819 16.5512 17.2794 21.5284 16.6339ZM28.1186 23.8016C28.1186 20.8373 25.602 18.4166 22.5039 18.4093C21.0259 18.405 19.6066 18.968 18.5578 19.9747C17.5089 20.9814 16.9163 22.3493 16.9101 23.7781C16.9066 25.207 17.4893 26.5789 18.5306 27.5929C19.5718 28.607 20.9866 29.1804 22.4646 29.1875C25.5794 29.1955 28.1152 26.7804 28.1186 23.8016Z" fill="#E5097F"/>
<path d="M7.4419 10.597C6.63789 10.597 5.83388 10.597 5.02988 10.597C4.42582 10.597 4.00332 10.2144 4.00583 9.68467C4.00834 9.1549 4.43084 8.78285 5.04075 8.78204C6.64821 8.78204 8.25594 8.78204 9.86396 8.78204C10.4688 8.78204 10.8905 9.1638 10.888 9.69438C10.8855 10.225 10.463 10.5954 9.85308 10.597C9.04991 10.5994 8.24591 10.597 7.4419 10.597Z" fill="#E5097F"/>
<path d="M7.41597 15.4418C6.622 15.4418 5.82635 15.4418 5.03573 15.4418C4.42833 15.4418 4.00583 15.0641 4.00583 14.5335C4.00583 14.0029 4.42414 13.6276 5.03573 13.6268C6.64319 13.6268 8.25093 13.6268 9.85894 13.6268C10.4663 13.6268 10.888 14.0037 10.888 14.5343C10.888 15.0649 10.4697 15.4393 9.85894 15.4418C9.04406 15.4434 8.23001 15.4418 7.41597 15.4418Z" fill="#E5097F"/>
<path d="M7.46449 18.4691C8.25762 18.4691 9.05409 18.4691 9.84472 18.4691C10.4588 18.4691 10.8796 18.8331 10.888 19.3637C10.8964 19.8943 10.4697 20.2841 9.84138 20.2849C8.2434 20.2849 6.64598 20.2849 5.04911 20.2849C4.43502 20.2849 4.0142 19.9193 4.00583 19.3896C3.99746 18.8598 4.42414 18.4708 5.05329 18.4691C5.85646 18.4675 6.66048 18.4691 7.46449 18.4691Z" fill="#E5097F"/>
<path d="M15.4468 10.5954C15.2695 10.5954 15.0913 10.6043 14.9147 10.5954C14.6723 10.5824 14.4446 10.479 14.2796 10.3068C14.1146 10.1346 14.0253 9.90719 14.0304 9.67254C14.0341 9.44284 14.1285 9.22319 14.2943 9.05866C14.4602 8.89412 14.6848 8.79718 14.9223 8.7877C15.2862 8.77233 15.6535 8.77152 16.0174 8.7877C16.2547 8.79826 16.4787 8.89644 16.6432 9.06199C16.8077 9.22753 16.9003 9.44781 16.9018 9.67739C16.9053 9.91205 16.8143 10.1389 16.648 10.3099C16.4818 10.4809 16.2532 10.5827 16.0107 10.5938C15.8233 10.6043 15.6351 10.5954 15.4468 10.5954Z" fill="#E5097F"/>
<path d="M15.4368 15.4385C15.2586 15.4385 15.0804 15.449 14.9039 15.4385C14.6671 15.423 14.4453 15.3211 14.2832 15.1536C14.1211 14.9861 14.0307 14.7653 14.0304 14.5359C14.0281 14.3062 14.1172 14.0843 14.2793 13.9163C14.4414 13.7483 14.6641 13.647 14.9014 13.6333C15.2767 13.6139 15.6529 13.6139 16.0283 13.6333C16.2656 13.6463 16.4885 13.7471 16.6511 13.9146C16.8137 14.0822 16.9034 14.3037 16.9018 14.5335C16.9019 14.7624 16.8119 14.9827 16.6502 15.1499C16.4885 15.317 16.2671 15.4185 16.0308 15.4337C15.8342 15.4507 15.6351 15.4385 15.4368 15.4385Z" fill="#E5097F"/>
<path d="M21.7434 23.6026C22.2738 22.9879 22.775 22.4105 23.2719 21.8297C23.5229 21.5345 23.8383 21.3825 24.2357 21.4617C24.905 21.596 25.2296 22.3603 24.7988 22.882C23.9588 23.8968 23.0968 24.8943 22.2127 25.8746C21.7894 26.3453 21.0414 26.2434 20.7294 25.6926C20.3638 25.0375 20.0249 24.3678 19.6953 23.694C19.5893 23.4822 19.5745 23.2385 19.654 23.0161C19.7335 22.7938 19.9009 22.6109 20.1195 22.5075C20.3352 22.3999 20.5858 22.3781 20.8179 22.4467C21.0501 22.5153 21.2453 22.6689 21.3619 22.8747C21.4874 23.0955 21.5995 23.3244 21.7434 23.6026Z" fill="#E5097F"/>
</svg>
