<svg width="30" height="31" viewBox="0 0 30 31" fill="none" xmlns="http://www.w3.org/2000/svg">
<path d="M0 20.6269C0.19501 20.2129 0.33994 19.7618 0.595043 19.3923C1.22838 18.476 2.13332 18.0431 3.21619 18.0322C4.44928 18.0194 5.68238 18.0041 6.9143 18.0413C7.41155 18.0565 7.90467 18.2069 8.44198 18.3031C8.44198 18.1813 8.4355 18.0048 8.44198 17.8282C8.51916 16.0468 9.89306 14.6429 11.6181 14.6282C13.8486 14.6088 16.0794 14.6088 18.3103 14.6282C20.0489 14.6423 21.4328 16.0462 21.4917 17.8489C21.5218 18.7171 21.5011 19.5871 21.5035 20.4565C21.5035 20.5648 21.5035 20.6732 21.5035 20.7676C23.3411 20.2263 25.1945 20.4662 27.0256 20.5113C28.6841 20.5521 29.9714 22.0333 29.9897 23.7514C30.0097 25.864 29.9938 27.9766 29.9973 30.0898C29.9973 30.5087 29.8011 30.7942 29.4671 31H0.471323L0 30.5129V20.6269ZM19.7307 29.2271C19.7366 29.1328 19.7449 29.0633 19.7449 28.9939C19.7449 25.3564 19.7449 21.7188 19.7449 18.0809C19.7449 17.0611 19.131 16.4437 18.1453 16.4425C16.0637 16.4397 13.9806 16.4397 11.8962 16.4425C10.7768 16.4425 10.1977 17.0355 10.1977 18.1935C10.1977 21.7608 10.1977 25.3276 10.1977 28.8941C10.1977 29.0012 10.2065 29.109 10.2118 29.2277L19.7307 29.2271ZM8.419 29.2271C8.42548 29.1486 8.43255 29.0993 8.43255 29.0506C8.43255 26.5258 8.44139 24.0004 8.43255 21.4756C8.42784 20.4644 7.80157 19.8495 6.81533 19.8458C5.66177 19.841 4.5082 19.841 3.35464 19.8458C2.30594 19.8458 1.70501 20.4741 1.70501 21.5645C1.70501 24.0083 1.70501 26.4525 1.70501 28.8971V29.2277L8.419 29.2271ZM28.2381 29.2222V28.8825C28.2381 27.2663 28.2381 25.6499 28.2381 24.0333C28.2381 22.8984 27.6531 22.2866 26.5614 22.2835C25.4373 22.2835 24.3126 22.2799 23.1885 22.2835C22.9835 22.2807 22.7789 22.305 22.5799 22.356C21.9053 22.5465 21.5129 23.1249 21.5094 23.9389C21.5029 25.626 21.5094 27.313 21.5094 29C21.5094 29.0688 21.5206 29.1376 21.5277 29.2204L28.2381 29.2222Z" fill="#E5097F"/>
<path d="M10.7073 11.6359C10.8493 10.7708 10.9282 9.93973 11.1332 9.144C11.3318 8.37446 11.2092 7.82469 10.5777 7.32181C10.0079 6.86885 9.53191 6.29047 9.0111 5.77176C8.72477 5.48622 8.5545 5.16294 8.68176 4.74346C8.81314 4.30816 9.13953 4.14012 9.5431 4.08046C10.5199 3.93495 11.4973 3.79614 12.4718 3.63602C12.5378 3.62126 12.6002 3.59275 12.6552 3.55224C12.7102 3.51174 12.7567 3.46007 12.7917 3.40041C13.2501 2.47561 13.686 1.53864 14.1367 0.60958C14.4042 0.056772 14.9121 -0.156924 15.3645 0.122524C15.5585 0.253608 15.7156 0.435264 15.8199 0.649153C16.273 1.55386 16.7037 2.47135 17.1326 3.38884C17.1603 3.46229 17.208 3.5259 17.2698 3.57202C17.3317 3.61814 17.4052 3.64481 17.4814 3.6488C18.4593 3.78335 19.435 3.93495 20.4112 4.08107C20.8048 4.14195 21.1217 4.30876 21.2543 4.72702C21.3869 5.14528 21.226 5.47161 20.9385 5.76202C20.2362 6.46459 19.5416 7.17569 18.8341 7.87279C18.7676 7.9296 18.7181 8.00471 18.6913 8.08941C18.6645 8.17411 18.6615 8.26493 18.6826 8.35132C18.8553 9.33396 19.0167 10.319 19.1828 11.3035C19.2523 11.715 19.2176 12.095 18.86 12.364C18.5024 12.6331 18.1477 12.5625 17.7854 12.364C16.9323 11.8946 16.0715 11.4393 15.2214 10.9638C15.0346 10.859 14.8944 10.8664 14.7112 10.968C13.8427 11.4514 12.9679 11.9227 12.0918 12.3914C11.5998 12.6545 11.105 12.5424 10.8634 12.1065C10.7815 11.9574 10.7503 11.7705 10.7073 11.6359ZM12.7693 9.96652C13.1817 9.74491 13.5252 9.56044 13.8693 9.37049C15.0134 8.73914 14.9227 8.73914 16.0674 9.37049C16.4144 9.56166 16.7644 9.74795 17.165 9.96408C17.0689 9.36805 17.0183 8.8329 16.8898 8.32027C16.7308 7.68101 16.9081 7.21527 17.38 6.79092C17.7659 6.44389 18.0911 6.02503 18.4482 5.63416C17.9433 5.55867 17.4236 5.45639 16.8999 5.40951C16.3278 5.35837 15.9366 5.11545 15.7115 4.54559C15.5071 4.0281 15.2367 3.53922 14.9745 2.99432C14.9032 3.12644 14.8567 3.20985 14.8131 3.29873C14.5774 3.78579 14.3418 4.27284 14.1138 4.76538C13.9517 5.1118 13.696 5.31332 13.3225 5.35837C13.0704 5.38881 12.8194 5.43264 12.5684 5.47161L11.5079 5.64025C11.9044 6.07738 12.2703 6.52852 12.6862 6.92425C13.071 7.28954 13.1723 7.69502 13.068 8.20277C12.9537 8.76228 12.8759 9.33091 12.7711 9.96652H12.7693Z" fill="#E5097F"/>
</svg>
