<svg width="171" height="135" viewBox="0 0 171 135" fill="none" xmlns="http://www.w3.org/2000/svg">
<path d="M84.1545 30.5871H83.4473V11.2131C83.4473 8.23922 82.2659 5.38712 80.163 3.28425C78.0602 1.18138 75.2081 3.70823e-06 72.2342 0H31.1878C29.7153 -5.24593e-06 28.2572 0.290026 26.8968 0.853532C25.5363 1.41704 24.3002 2.24299 23.259 3.28422C22.2177 4.32545 21.3918 5.56157 20.8283 6.922C20.2647 8.28244 19.9747 9.74054 19.9747 11.2131V117.5C19.9747 118.973 20.2647 120.431 20.8282 121.791C21.3917 123.152 22.2177 124.388 23.2589 125.429C24.3002 126.47 25.5363 127.296 26.8967 127.86C28.2572 128.423 29.7153 128.713 31.1878 128.713H72.2341C73.7066 128.713 75.1648 128.423 76.5252 127.86C77.8856 127.296 79.1218 126.47 80.163 125.429C81.2042 124.388 82.0302 123.152 82.5937 121.791C83.1572 120.431 83.4473 118.973 83.4473 117.5V44.3778H84.1545V30.5871Z" fill="#3F3D56"/>
<path d="M72.6021 3.1825H67.2442C67.4906 3.78658 67.5847 4.44198 67.5181 5.09098C67.4515 5.73998 67.2264 6.36264 66.8625 6.90413C66.4986 7.44561 66.0071 7.88929 65.4313 8.19608C64.8556 8.50287 64.2132 8.66337 63.5608 8.66341H40.0459C39.3935 8.66336 38.7511 8.50287 38.1753 8.19608C37.5996 7.88929 37.1081 7.44561 36.7442 6.90412C36.3803 6.36264 36.1551 5.73998 36.0886 5.09098C36.022 4.44199 36.116 3.78658 36.3624 3.1825H31.3582C29.1373 3.18249 27.0074 4.06473 25.437 5.63512C23.8666 7.20551 22.9843 9.33543 22.9843 11.5563V117.687C22.9843 118.787 23.2009 119.876 23.6217 120.892C24.0426 121.908 24.6594 122.831 25.4369 123.608C26.2145 124.386 27.1377 125.003 28.1536 125.424C29.1696 125.845 30.2585 126.061 31.3581 126.061H72.6021C74.823 126.061 76.9529 125.179 78.5233 123.609C80.0937 122.038 80.976 119.908 80.976 117.687V11.5563C80.976 10.4567 80.7594 9.36775 80.3386 8.35179C79.9177 7.33583 79.3009 6.41271 78.5233 5.63513C77.7458 4.85755 76.8226 4.24074 75.8067 3.81991C74.7907 3.39909 73.7018 3.18249 72.6021 3.1825H72.6021ZM71.702 52.4174C71.7003 52.9921 71.4712 53.5428 71.0648 53.9492C70.6584 54.3556 70.1077 54.5847 69.533 54.5863H59.0495C58.4748 54.5847 57.9241 54.3556 57.5177 53.9492C57.1113 53.5428 56.8822 52.9921 56.8805 52.4174V51.8751C56.8822 51.3004 57.1113 50.7496 57.5177 50.3432C57.9241 49.9368 58.4748 49.7078 59.0495 49.7061H69.533C70.1077 49.7078 70.6584 49.9368 71.0648 50.3432C71.4712 50.7496 71.7003 51.3004 71.702 51.8751V52.4174ZM72.8769 42.8376C72.8752 43.4124 72.6461 43.9631 72.2397 44.3695C71.8333 44.7759 71.2826 45.0049 70.7079 45.0066H33.112C32.5372 45.0049 31.9865 44.7759 31.5801 44.3695C31.1737 43.9631 30.9447 43.4124 30.943 42.8376V42.2954C30.9447 41.7206 31.1737 41.1699 31.5801 40.7635C31.9865 40.3571 32.5372 40.1281 33.112 40.1264H70.7079C71.2826 40.1281 71.8333 40.3571 72.2397 40.7635C72.6461 41.1699 72.8752 41.7206 72.8769 42.2954V42.8376ZM72.8769 33.2579C72.8752 33.8326 72.6461 34.3834 72.2397 34.7898C71.8333 35.1962 71.2826 35.4252 70.7079 35.4269H33.112C32.5372 35.4252 31.9865 35.1962 31.5801 34.7898C31.1737 34.3834 30.9447 33.8326 30.943 33.2579V32.7157C30.9447 32.1409 31.1737 31.5902 31.5801 31.1838C31.9865 30.7774 32.5372 30.5483 33.112 30.5467H70.7079C71.2826 30.5483 71.8333 30.7774 72.2397 31.1838C72.6461 31.5902 72.8752 32.1409 72.8769 32.7157V33.2579ZM72.8769 23.6782C72.8752 24.2529 72.6461 24.8036 72.2397 25.21C71.8333 25.6164 71.2826 25.8455 70.7079 25.8472H33.112C32.5372 25.8455 31.9865 25.6164 31.5801 25.21C31.1737 24.8036 30.9447 24.2529 30.943 23.6782V23.1359C30.9447 22.5612 31.1737 22.0105 31.5801 21.6041C31.9865 21.1977 32.5372 20.9686 33.112 20.967H70.7079C71.2826 20.9686 71.8333 21.1977 72.2397 21.6041C72.6461 22.0105 72.8752 22.5612 72.8769 23.1359V23.6782Z" fill="white"/>
<path d="M33.9253 43.9221C34.6241 43.9221 35.1906 43.3556 35.1906 42.6568C35.1906 41.9581 34.6241 41.3916 33.9253 41.3916C33.2266 41.3916 32.6601 41.9581 32.6601 42.6568C32.6601 43.3556 33.2266 43.9221 33.9253 43.9221Z" fill="white"/>
<path d="M38.0826 43.9221C38.7813 43.9221 39.3478 43.3556 39.3478 42.6568C39.3478 41.9581 38.7813 41.3916 38.0826 41.3916C37.3838 41.3916 36.8173 41.9581 36.8173 42.6568C36.8173 43.3556 37.3838 43.9221 38.0826 43.9221Z" fill="white"/>
<path d="M42.2398 43.9221C42.9386 43.9221 43.505 43.3556 43.505 42.6568C43.505 41.9581 42.9386 41.3916 42.2398 41.3916C41.541 41.3916 40.9745 41.9581 40.9745 42.6568C40.9745 43.3556 41.541 43.9221 42.2398 43.9221Z" fill="white"/>
<path d="M46.3971 43.9221C47.0958 43.9221 47.6623 43.3556 47.6623 42.6568C47.6623 41.9581 47.0958 41.3916 46.3971 41.3916C45.6983 41.3916 45.1318 41.9581 45.1318 42.6568C45.1318 43.3556 45.6983 43.9221 46.3971 43.9221Z" fill="white"/>
<path d="M59.9533 53.5019C60.652 53.5019 61.2185 52.9355 61.2185 52.2367C61.2185 51.5379 60.652 50.9714 59.9533 50.9714C59.2545 50.9714 58.688 51.5379 58.688 52.2367C58.688 52.9355 59.2545 53.5019 59.9533 53.5019Z" fill="white"/>
<path d="M64.1105 53.5019C64.8093 53.5019 65.3757 52.9355 65.3757 52.2367C65.3757 51.5379 64.8093 50.9714 64.1105 50.9714C63.4117 50.9714 62.8452 51.5379 62.8452 52.2367C62.8452 52.9355 63.4117 53.5019 64.1105 53.5019Z" fill="white"/>
<path d="M68.2677 53.5019C68.9665 53.5019 69.533 52.9355 69.533 52.2367C69.533 51.5379 68.9665 50.9714 68.2677 50.9714C67.569 50.9714 67.0025 51.5379 67.0025 52.2367C67.0025 52.9355 67.569 53.5019 68.2677 53.5019Z" fill="white"/>
<path d="M73.1677 68.6301H30.2906C29.2833 68.6301 28.3172 69.0303 27.6049 69.7426C26.8926 70.4549 26.4925 71.4209 26.4925 72.4283V93.3189C26.4925 94.3262 26.8926 95.2923 27.6049 96.0046C28.3172 96.7168 29.2833 97.117 30.2906 97.117H73.1677C74.175 97.117 75.1411 96.7169 75.8534 96.0046C76.5657 95.2923 76.9659 94.3262 76.9659 93.3189V72.4283C76.9659 71.4209 76.5657 70.4549 75.8534 69.7426C75.1411 69.0303 74.175 68.6301 73.1677 68.6301H73.1677ZM29.2298 71.2211C29.3144 71.2057 31.3222 70.8641 32.9847 71.8644C34.6471 72.8646 35.2859 74.7987 35.3122 74.8805L35.3794 75.089L35.1636 75.1273C34.8559 75.1754 34.5447 75.1982 34.2332 75.1956C33.245 75.2145 32.2698 74.9687 31.4086 74.4837C29.7462 73.4837 29.1076 71.5496 29.0812 71.4679L29.014 71.2593L29.2298 71.2211ZM38.5373 90.6166H30.8898C30.332 90.6166 29.7971 90.3951 29.4027 90.0007C29.0083 89.6063 28.7867 89.0714 28.7867 88.5136C28.7867 87.9558 29.0083 87.4209 29.4027 87.0265C29.7971 86.6321 30.332 86.4105 30.8898 86.4105H38.5373C39.095 86.4105 39.6299 86.6321 40.0243 87.0265C40.4187 87.4209 40.6403 87.9558 40.6403 88.5136C40.6403 89.0714 40.4187 89.6063 40.0243 90.0007C39.6299 90.3951 39.095 90.6166 38.5373 90.6166ZM73.3333 90.2343C73.3315 90.8422 73.0892 91.4247 72.6594 91.8546C72.2295 92.2845 71.647 92.5267 71.039 92.5285H65.3034C64.6955 92.5267 64.113 92.2845 63.6831 91.8546C63.2533 91.4247 63.011 90.8422 63.0092 90.2343V86.7929C63.011 86.185 63.2533 85.6025 63.6831 85.1726C64.113 84.7427 64.6955 84.5004 65.3034 84.4987H71.039C71.647 84.5004 72.2295 84.7427 72.6594 85.1726C73.0892 85.6025 73.3315 86.185 73.3333 86.7929L73.3333 90.2343Z" fill="#E5097F"/>
<path d="M67.1527 89.5251H64.8466C64.6819 89.5251 64.524 89.5906 64.4076 89.707C64.2911 89.8234 64.2257 89.9814 64.2257 90.146C64.2257 90.3107 64.2911 90.4686 64.4076 90.5851C64.524 90.7015 64.6819 90.7669 64.8466 90.7669H67.1527C67.3174 90.7669 67.4753 90.7015 67.5917 90.5851C67.7082 90.4686 67.7736 90.3107 67.7736 90.146C67.7736 89.9814 67.7082 89.8234 67.5917 89.707C67.4753 89.5906 67.3174 89.5251 67.1527 89.5251Z" fill="#3F3D56"/>
<path d="M71.4102 89.5251H69.1041C68.9394 89.5251 68.7815 89.5906 68.665 89.707C68.5486 89.8234 68.4832 89.9814 68.4832 90.146C68.4832 90.3107 68.5486 90.4686 68.665 90.5851C68.7815 90.7015 68.9394 90.7669 69.1041 90.7669H71.4102C71.5749 90.7669 71.7328 90.7015 71.8492 90.5851C71.9657 90.4686 72.0311 90.3107 72.0311 90.146C72.0311 89.9814 71.9657 89.8234 71.8492 89.707C71.7328 89.5906 71.5749 89.5251 71.4102 89.5251Z" fill="#3F3D56"/>
<path d="M67.1524 87.7725H64.8463C64.6816 87.7725 64.5237 87.8379 64.4072 87.9543C64.2908 88.0708 64.2254 88.2287 64.2254 88.3934C64.2254 88.558 64.2908 88.7159 64.4072 88.8324C64.5237 88.9488 64.6816 89.0142 64.8463 89.0142H67.1524C67.3171 89.0142 67.475 88.9488 67.5914 88.8324C67.7079 88.7159 67.7733 88.558 67.7733 88.3934C67.7733 88.2287 67.7079 88.0708 67.5914 87.9543C67.475 87.8379 67.3171 87.7725 67.1524 87.7725Z" fill="#3F3D56"/>
<path d="M71.4098 87.7725H69.1037C68.939 87.7725 68.7811 87.8379 68.6647 87.9543C68.5482 88.0708 68.4828 88.2287 68.4828 88.3934C68.4828 88.558 68.5482 88.7159 68.6647 88.8324C68.7811 88.9488 68.939 89.0142 69.1037 89.0142H71.4098C71.5745 89.0142 71.7324 88.9488 71.8489 88.8324C71.9653 88.7159 72.0307 88.558 72.0307 88.3934C72.0307 88.2287 71.9653 88.0708 71.8489 87.9543C71.7324 87.8379 71.5745 87.7725 71.4098 87.7725H71.4098Z" fill="#3F3D56"/>
<path d="M67.1524 86.0553H64.8463C64.6816 86.0553 64.5237 86.1207 64.4072 86.2372C64.2908 86.3536 64.2254 86.5115 64.2254 86.6762C64.2254 86.8408 64.2908 86.9988 64.4072 87.1152C64.5237 87.2316 64.6816 87.2971 64.8463 87.2971H67.1524C67.3171 87.2971 67.475 87.2316 67.5914 87.1152C67.7079 86.9988 67.7733 86.8408 67.7733 86.6762C67.7733 86.5115 67.7079 86.3536 67.5914 86.2372C67.475 86.1207 67.3171 86.0553 67.1524 86.0553Z" fill="#3F3D56"/>
<path d="M71.4098 86.0553H69.1037C68.939 86.0553 68.7811 86.1207 68.6647 86.2372C68.5482 86.3536 68.4828 86.5115 68.4828 86.6762C68.4828 86.8408 68.5482 86.9988 68.6647 87.1152C68.7811 87.2316 68.939 87.2971 69.1037 87.2971H71.4098C71.5745 87.2971 71.7324 87.2316 71.8489 87.1152C71.9653 86.9988 72.0307 86.8408 72.0307 86.6762C72.0307 86.5115 71.9653 86.3536 71.8489 86.2372C71.7324 86.1207 71.5745 86.0553 71.4098 86.0553H71.4098Z" fill="#3F3D56"/>
<path d="M102.865 76.4995H97.2723V82.0922H102.865V76.4995Z" fill="#E6E6E6"/>
<path d="M90.681 79.8951H99.8689V89.0831H90.681V79.8951ZM99.4694 80.2946H91.0804V88.6836H99.4694V80.2946Z" fill="#3F3D56"/>
<path d="M5.59266 30.3601H0V35.9528H5.59266V30.3601Z" fill="#E6E6E6"/>
<path d="M12.184 32.5572H2.99606V23.3693H12.184V32.5572ZM3.39554 32.1577H11.7845V23.7687H3.39554V32.1577Z" fill="#3F3D56"/>
<path d="M130.444 132.11H127.995L126.831 122.665H130.445L130.444 132.11Z" fill="#FFB8B8"/>
<path d="M126.246 131.41H130.969V134.384H123.273C123.273 133.595 123.586 132.839 124.144 132.281C124.701 131.724 125.458 131.41 126.246 131.41Z" fill="#2F2E41"/>
<path d="M142.628 132.11H140.179L139.015 122.665H142.629L142.628 132.11Z" fill="#FFB8B8"/>
<path d="M138.43 131.41H143.153V134.384H135.457C135.457 133.595 135.77 132.839 136.328 132.281C136.885 131.724 137.642 131.41 138.43 131.41Z" fill="#2F2E41"/>
<path d="M118.16 98.3316C117.984 98.072 117.867 97.777 117.817 97.4673C117.767 97.1576 117.786 96.8407 117.872 96.539C117.958 96.2373 118.109 95.9581 118.314 95.7211C118.52 95.484 118.775 95.2949 119.061 95.1671L127.385 72.2239L131.481 74.4592L121.977 96.3846C122.16 96.8801 122.154 97.4254 121.962 97.9173C121.77 98.4091 121.404 98.8133 120.933 99.0533C120.463 99.2933 119.921 99.3524 119.41 99.2194C118.898 99.0864 118.454 98.7705 118.16 98.3316Z" fill="#FFB8B8"/>
<path d="M141.377 102.643C141.105 102.487 140.871 102.273 140.69 102.016C140.509 101.76 140.387 101.467 140.332 101.158C140.277 100.849 140.29 100.532 140.371 100.229C140.452 99.9259 140.598 99.6442 140.8 99.4037L138.221 75.1337L142.882 75.3466L143.954 99.2194C144.336 99.5845 144.57 100.077 144.613 100.603C144.656 101.13 144.504 101.654 144.186 102.075C143.869 102.497 143.407 102.788 142.89 102.893C142.372 102.997 141.834 102.908 141.377 102.643V102.643Z" fill="#FFB8B8"/>
<path d="M133.941 67.9743C136.65 67.9743 138.847 65.7779 138.847 63.0685C138.847 60.3591 136.65 58.1627 133.941 58.1627C131.232 58.1627 129.035 60.3591 129.035 63.0685C129.035 65.7779 131.232 67.9743 133.941 67.9743Z" fill="#FFB8B8"/>
<path d="M141.346 97.123H126.556L126.574 97.008C126.6 96.8359 129.21 79.7428 127.285 74.1508C127.092 73.6012 127.109 72.9997 127.333 72.4619C127.557 71.9241 127.972 71.4881 128.498 71.2379H128.498C131.248 69.9425 136.529 68.3474 140.985 72.2184C141.641 72.7974 142.153 73.5211 142.481 74.3321C142.809 75.1432 142.944 76.0194 142.875 76.8915L141.346 97.123Z" fill="#CCCCCC"/>
<path d="M129.397 82.2689L122.738 80.918L125.859 73.5218C126.046 72.8054 126.509 72.1923 127.148 71.8171C127.786 71.4418 128.547 71.335 129.263 71.52C129.98 71.7051 130.594 72.1669 130.971 72.8042C131.348 73.4415 131.457 74.2022 131.273 74.9195L129.397 82.2689Z" fill="#CCCCCC"/>
<path d="M137.925 84.777L137.524 75.6008C137.221 73.8758 138.208 72.2451 139.727 71.9786C141.246 71.713 142.729 72.9094 143.034 74.647L144.539 83.2213L137.925 84.777Z" fill="#CCCCCC"/>
<path d="M140.854 96.0245C143.234 105.088 143.493 116.611 142.851 129.181L139.656 128.782L133.863 104.813L130.667 129.181L127.072 128.981C125.998 115.793 124.952 104.47 126.673 97.0232L140.854 96.0245Z" fill="#2F2E41"/>
<path d="M137.173 66.8598C136.258 67.8347 134.559 67.3114 134.439 65.9796C134.43 65.8762 134.431 65.7721 134.441 65.6688C134.503 65.0789 134.844 64.5433 134.762 63.9204C134.744 63.7654 134.686 63.6176 134.594 63.4912C133.865 62.5146 132.153 63.928 131.465 63.0439C131.043 62.5018 131.539 61.6483 131.215 61.0424C130.788 60.2428 129.521 60.6372 128.728 60.1993C127.844 59.712 127.897 58.3567 128.478 57.5323C129.188 56.5269 130.431 55.9904 131.659 55.9131C132.887 55.8358 134.106 56.1677 135.253 56.6144C136.555 57.122 137.847 57.8236 138.648 58.9689C139.623 60.3617 139.717 62.2342 139.229 63.8628C138.933 64.8535 137.921 66.0637 137.173 66.8598Z" fill="#2F2E41"/>
<path d="M170.8 134.623H94.7001C94.6472 134.623 94.5964 134.602 94.5589 134.565C94.5214 134.527 94.5004 134.476 94.5004 134.423C94.5004 134.371 94.5214 134.32 94.5589 134.282C94.5964 134.245 94.6472 134.224 94.7001 134.224H170.8C170.853 134.224 170.904 134.245 170.941 134.282C170.979 134.32 171 134.371 171 134.423C171 134.476 170.979 134.527 170.941 134.565C170.904 134.602 170.853 134.623 170.8 134.623Z" fill="#3F3D56"/>
</svg>
