<svg width="16" height="21" viewBox="0 0 16 21" fill="none" xmlns="http://www.w3.org/2000/svg">
<path d="M2.92967 21C2.78512 20.9682 2.64058 20.938 2.4965 20.9036C1.1247 20.5781 0.206732 19.4829 0.04435 17.9546C-0.052328 17.0461 0.0227617 16.1407 0.138212 15.2373C0.239583 14.4524 0.396333 13.6808 0.682143 12.9486C1.06322 11.9745 1.579 11.1214 2.46552 10.6041C3.0009 10.289 3.602 10.1313 4.20995 10.1462C4.40331 10.1503 4.60652 10.2585 4.78298 10.3636C5.06691 10.5328 5.33207 10.741 5.60662 10.9302C6.43636 11.5018 7.33462 11.8104 8.32112 11.7274C9.04104 11.6664 9.70652 11.4029 10.3232 10.9932C10.5414 10.8481 10.7676 10.7102 10.9657 10.5354C11.4674 10.0914 12.0235 10.0873 12.6139 10.2278C13.7468 10.5005 14.532 11.246 15.0731 12.3431C15.5302 13.2701 15.7771 14.2688 15.8836 15.3029C15.9622 16.069 16.0011 16.8392 16 17.6101C16 19.2584 14.9637 20.5919 13.4821 20.9077C13.3493 20.9359 13.217 20.9657 13.0846 20.9949L2.92967 21ZM8.00386 19.7695C8.54075 19.7695 9.07764 19.7695 9.61454 19.7695C10.6508 19.7695 11.688 19.7875 12.7237 19.7613C14.1232 19.7265 14.9046 18.8313 14.8802 17.306C14.8715 16.6917 14.8331 16.0784 14.7652 15.4685C14.6643 14.5857 14.4742 13.7254 14.0781 12.9348C13.7121 12.2047 13.2141 11.6531 12.4454 11.4567C12.1113 11.37 11.8006 11.3516 11.5143 11.6202C11.3594 11.7653 11.1736 11.872 10.9981 11.9899C9.2649 13.1599 7.46791 13.3229 5.62117 12.3513C5.15702 12.1078 4.73464 11.7705 4.2902 11.4798C4.22504 11.4295 4.14867 11.3994 4.06916 11.3926C3.42573 11.4182 2.86491 11.6577 2.42657 12.1893C1.99903 12.7056 1.73199 13.3173 1.54614 13.975C1.22889 15.0948 1.1416 16.2504 1.13738 17.4132C1.13503 18.1781 1.34669 18.8528 1.946 19.3209C2.40358 19.6798 2.92873 19.767 3.47313 19.768C4.98275 19.7711 6.49299 19.7712 8.00386 19.7695Z" fill="#E5097F"/>
<path d="M8.36335 0C8.55108 0.0410156 8.74209 0.0707524 8.92653 0.124585C10.8127 0.670606 12.024 1.98208 12.4159 4.0667C12.757 5.88369 12.2877 7.49817 11.0187 8.76709C9.59154 10.1944 7.91845 10.5103 6.15431 9.74121C4.52205 9.02703 3.52945 7.64326 3.31075 5.70015C3.05169 3.39866 4.10295 1.3771 6.03276 0.422461C6.41243 0.234815 6.84232 0.168677 7.24874 0.0456298C7.29567 0.0317871 7.3426 0.0164062 7.38672 0.00153802L8.36335 0ZM11.3791 5.06133C11.3821 4.55877 11.294 4.06054 11.1198 3.5954C10.9456 3.13025 10.6888 2.7074 10.3642 2.35125C10.0396 1.99509 9.65367 1.71268 9.22866 1.52032C8.80365 1.32795 8.34798 1.22944 7.88794 1.23047C5.9572 1.23047 4.41035 2.92236 4.39205 5.04441C4.37374 7.18337 6.02243 8.89783 7.88184 8.88296C9.82432 8.86809 11.3745 7.19927 11.3791 5.06133Z" fill="#E5097F"/>
</svg>
