<svg width="41" height="94" viewBox="0 0 41 94" fill="none" xmlns="http://www.w3.org/2000/svg">
<g clip-path="url(#clip0_12_455)">
<path d="M40.5041 90.1621C40.5041 92.2833 31.4389 94 20.2492 94C9.05944 94 0 92.266 0 90.1621C0 88.0582 9.06517 86.33 20.2492 86.33C31.4332 86.33 40.5041 88.0466 40.5041 90.1621Z" fill="#D3D1DE"/>
<path d="M5.97855 14.5598C5.6206 14.3655 5.20894 14.2964 4.80796 14.3633C4.40698 14.4302 4.03927 14.6294 3.76236 14.9297C2.70294 15.999 3.22979 18.4555 5.07947 19.7329C6.92915 21.0102 7.8855 19.9987 7.8855 19.9987C7.8855 19.9987 9.57484 24.1603 16.2864 23.7326C18.2073 23.6153 20.0573 22.9576 21.627 21.834C23.1967 20.7103 24.4234 19.1656 25.1683 17.3746C25.1683 17.3746 28.9765 17.1203 29.4002 14.3517C29.824 11.5831 25.8555 11.2651 25.8555 11.2651C25.8555 11.2651 26.3881 2.59517 17.8726 2.01717C9.35722 1.43917 5.23982 10.664 5.97855 14.5598Z" fill="#FFA778"/>
<path d="M15.3816 12.8778C15.3816 12.8778 16.7789 16.9238 16.3265 17.0741C15.8741 17.2244 15.2212 17.1724 14.9922 16.8429C14.7631 16.5134 14.9578 12.9009 15.3816 12.8778Z" fill="#FF6557"/>
<path d="M11.7567 13.7159C11.7567 13.8576 11.715 13.9962 11.637 14.1141C11.559 14.2319 11.4481 14.3238 11.3183 14.378C11.1886 14.4323 11.0458 14.4465 10.908 14.4188C10.7703 14.3912 10.6438 14.3229 10.5445 14.2227C10.4451 14.1224 10.3775 13.9947 10.3501 13.8557C10.3227 13.7167 10.3368 13.5726 10.3905 13.4416C10.4443 13.3106 10.5353 13.1987 10.6521 13.1199C10.7688 13.0412 10.9061 12.9991 11.0466 12.9991C11.2349 12.9991 11.4155 13.0747 11.5487 13.2091C11.6818 13.3435 11.7567 13.5258 11.7567 13.7159Z" fill="#4D1E1A"/>
<path d="M20.2492 12.2825C20.2503 12.4247 20.2095 12.5641 20.1319 12.6829C20.0543 12.8016 19.9435 12.8944 19.8135 12.9493C19.6835 13.0043 19.5402 13.019 19.402 12.9915C19.2637 12.964 19.1366 12.8956 19.037 12.7951C18.9373 12.6945 18.8696 12.5662 18.8424 12.4267C18.8151 12.2871 18.8297 12.1425 18.8841 12.0113C18.9386 11.8801 19.0305 11.7683 19.1481 11.69C19.2658 11.6116 19.4039 11.5704 19.5448 11.5716C19.6373 11.5716 19.7289 11.5899 19.8143 11.6257C19.8998 11.6614 19.9775 11.7138 20.0429 11.7798C20.1083 11.8458 20.1601 11.9242 20.1955 12.0104C20.2309 12.0967 20.2492 12.1891 20.2492 12.2825Z" fill="#4D1E1A"/>
<path d="M13.1425 18.6463C13.3703 18.7524 13.5674 18.9156 13.7151 19.1202C14.0331 19.4541 14.4349 19.6944 14.8777 19.8156C15.3205 19.9367 15.7877 19.9341 16.2291 19.808C17.4145 19.4555 17.7352 18.7619 18.0788 18.652C18.2141 18.6014 18.3542 18.5646 18.4968 18.5422C18.4968 18.5422 17.4317 20.6924 15.2728 20.4265C13.1139 20.1606 13.1196 18.5422 13.1196 18.5422" fill="#4D1E1A"/>
<path d="M11.2813 16.9296C12.1796 16.9296 12.9077 16.5854 12.9077 16.1608C12.9077 15.7363 12.1796 15.3921 11.2813 15.3921C10.3831 15.3921 9.655 15.7363 9.655 16.1608C9.655 16.5854 10.3831 16.9296 11.2813 16.9296Z" fill="#FF6557"/>
<path d="M21.8526 14.1494C21.9271 14.5713 21.28 15.0337 20.3809 15.184C19.4818 15.3343 18.7202 15.1204 18.6629 14.7042C18.6056 14.2881 19.2356 13.8257 20.1404 13.6696C21.0452 13.5136 21.7839 13.7332 21.8526 14.1494Z" fill="#FF6557"/>
<path d="M25.8555 11.2478L25.1683 17.3573C25.1683 17.3573 28.7474 17.6925 29.4289 15.0106C30.1103 12.3287 28.547 10.7854 25.8555 11.2478Z" fill="#FF6557"/>
<path d="M5.97855 14.5598L7.8855 19.9988C7.35777 20.3468 6.73758 20.5243 6.10743 20.5078C5.47729 20.4913 4.86706 20.2815 4.35793 19.9063C2.53115 18.5885 2.30782 12.9588 5.97855 14.5598Z" fill="#FF6557"/>
<path d="M6.05299 14.7678C6.16943 14.827 6.29675 14.8613 6.42694 14.8684C6.55712 14.8755 6.68736 14.8554 6.80946 14.8092C6.93156 14.7631 7.04288 14.6919 7.13641 14.6003C7.22994 14.5086 7.30365 14.3984 7.35293 14.2765C7.70797 13.3575 6.99788 10.9357 6.99788 10.9357C6.99788 10.9357 7.4102 11.8836 7.8855 11.9183C8.36081 11.953 7.67935 10.1843 7.67935 10.1843C9.10915 11.0584 10.7948 11.4056 12.4496 11.1669C13.871 11.0066 15.2327 10.5008 16.4181 9.69298C18.4954 9.76004 20.573 9.56588 22.6028 9.11498C25.1969 8.39248 26.0387 6.88968 25.5233 5.6123C25.008 4.33493 21.8526 2.27726 20.0717 2.17322C20.0717 2.17322 20.9478 1.90734 20.5584 1.71082C20.2765 1.60074 19.9641 1.60074 19.6822 1.71082C19.6822 1.71082 20.5011 0.55482 18.5369 0.0750806C16.5727 -0.404659 6.29924 1.90734 5.26273 6.52555C4.22622 11.1438 4.42092 13.2419 4.42092 13.2419C4.42092 13.2419 3.64211 12.2593 3.37868 13.0107C3.11526 13.7621 3.95134 14.4384 3.95134 14.4384C3.95134 14.4384 5.74376 14.6811 6.05299 14.7678Z" fill="#4D1E1A"/>
<path d="M4.53544 13.2188C4.53544 13.2188 3.47603 10.0861 3.7509 7.43883C4.02578 4.7916 6.27632 2.01721 7.03223 4.21939C7.78814 6.42157 4.53544 13.2188 4.53544 13.2188Z" fill="#4D1E1A"/>
<path d="M18.8347 22.9581L19.5448 30.4721L23.1182 30.5877C23.1182 30.5877 20.3751 34.4025 17.1683 34.3447C15.1406 34.2379 13.2192 33.3965 11.7567 31.9749L14.8948 30.9345V22.7269L18.8347 22.9581Z" fill="#FFA778"/>
<path d="M14.8948 23.7558C16.2368 23.8425 17.583 23.6739 18.8633 23.2587L19.0466 25.1892L14.8948 26.7903V23.7558Z" fill="#FF6557"/>
<path d="M23.1182 30.5878C23.1182 30.5878 28.3122 30.1311 29.8813 33.9055C30.7368 35.8431 31.3968 37.8628 31.8512 39.934L26.9435 41.4541V50.1646L9.38586 51.1356L8.68149 41.4541L3.74518 39.7548C3.74518 39.7548 5.46315 35.547 7.32429 34.0673C8.65432 33.0952 10.1542 32.3853 11.7452 31.975C11.7452 31.975 13.9385 33.709 17.9184 33.3044C21.8984 32.8998 23.1182 30.5878 23.1182 30.5878Z" fill="#E5097F"/>
<path d="M10.2448 51.0893L9.01362 87.168L10.2448 87.5726C10.2448 87.5726 6.33931 90.8441 7.13531 90.8441C7.9313 90.8441 11.5791 87.5148 11.5791 87.5148H12.3751C12.3751 87.5148 19.8197 58.4357 19.6593 58.3201C19.499 58.2045 23.6679 88.064 23.6679 88.064L25.0996 88.353C25.0996 88.353 28.1003 91.5262 28.5985 91.6707C29.0967 91.8152 27.4532 88.5726 27.4532 88.5726L29.5262 87.9195L26.5942 50.1819L10.2448 51.0893Z" fill="#393747"/>
<path d="M8.69295 41.4541C8.69295 41.4541 8.32645 50.2859 8.37226 50.5402C8.41807 50.7945 9.59775 56.8462 9.81536 57.0774C10.033 57.3086 10.5598 57.1236 11.1554 57.875C11.7509 58.6264 12.5469 59.9327 12.2205 60.0541C11.8941 60.1754 10.6572 59.2795 10.6572 59.2795C10.6572 59.2795 11.0294 63.3255 10.6114 63.3255C10.1933 63.3255 9.61492 61.5915 9.61492 61.5915C9.61492 61.5915 10.1532 63.4122 9.82108 63.4932C9.48894 63.5741 7.28421 59.8633 6.786 58.8692C6.28778 57.875 4.40947 50.939 4.27776 49.5634C4.14605 48.1877 4.27776 39.9224 4.27776 39.9224L8.69295 41.4541Z" fill="#FFA778"/>
<path d="M26.9435 41.4541C26.9435 41.4541 27.3043 50.2859 27.2585 50.5402C27.2127 50.7945 26.0387 56.8462 25.8154 57.0774C25.5921 57.3086 25.0709 57.1236 24.4754 57.875C23.8798 58.6264 23.0896 59.9327 23.4102 60.0541C23.7309 60.1754 24.9736 59.2795 24.9736 59.2795C24.9736 59.2795 24.6014 63.3255 25.0251 63.3255C25.4489 63.3255 26.0158 61.5915 26.0158 61.5915C26.0158 61.5915 25.4775 63.4122 25.8097 63.4932C26.1418 63.5741 28.3465 59.8633 28.8448 58.8692C29.343 57.875 31.2213 50.939 31.3587 49.5634C31.4962 48.1877 31.3587 39.9224 31.3587 39.9224L26.9435 41.4541Z" fill="#FFA778"/>
<path d="M10.6514 43.7314C12.6335 45.1386 15.0154 45.8568 17.4374 45.7775C21.3258 45.5752 25.2485 41.7315 25.3802 42.2344C25.5119 42.7373 17.0709 48.1647 16.9736 48.1647" stroke="#256E52" stroke-width="0.55" stroke-miterlimit="10"/>
<path d="M19.7624 2.11544C19.7624 2.11544 21.6579 1.57212 22.5283 1.83222L23.3988 2.09232L23.1583 2.62986C22.611 2.35646 22.0107 2.20843 21.4002 2.19636C20.5527 2.23104 19.7624 2.33508 19.7624 2.33508V2.11544Z" fill="#4D1E1A"/>
<path d="M7.14677 4.25987C7.66117 3.41949 8.25781 2.63333 8.92773 1.9132L9.50039 1.49126L8.8132 1.12712C8.8132 1.12712 8.24055 1.8265 7.98285 2.1733C7.72515 2.5201 7.27848 3.3293 7.27848 3.3293L7.45027 0.526001L6.82608 0.820777V4.14428L7.14677 4.25987Z" fill="#4D1E1A"/>
<path d="M27.6135 12.2825L25.6665 15.3921L28.295 14.4268" stroke="#4D1E1A" stroke-width="0.28" stroke-miterlimit="10"/>
<path d="M4.4839 15.895L6.49393 18.5365L4.4839 18.2533" stroke="#4D1E1A" stroke-width="0.28" stroke-miterlimit="10"/>
<path d="M31.3587 39.934L31.3816 41.8298L27.0065 43.0609L26.9435 41.4541L31.3587 39.934Z" fill="#FF6557"/>
<path d="M4.27776 39.934L8.69294 41.4541V43.2806L4.22049 42.6043L4.27776 39.934Z" fill="#FF6557"/>
</g>
<defs>
<clipPath id="clip0_12_455">
<rect width="40.5041" height="94" fill="white"/>
</clipPath>
</defs>
</svg>
