<svg width="37" height="110" viewBox="0 0 37 110" fill="none" xmlns="http://www.w3.org/2000/svg">
<g clip-path="url(#clip0_12_550)">
<path d="M35.727 106.875C35.727 108.296 28.1874 109.446 18.8897 109.446C9.592 109.446 2.05626 108.285 2.05626 106.875C2.05626 105.465 9.592 104.308 18.8897 104.308C28.1874 104.308 35.727 105.458 35.727 106.875Z" fill="#D3D1DE"/>
<path d="M8.62389 61.6877L7.65192 104.978L8.62389 105.949L4.47266 107.979L12.2407 106.921L17.6273 65.4013L23.6102 106.921L30.6076 107.363L27.2541 105.86L29.2833 105.419L25.6664 59.2365L8.62389 61.6877Z" fill="#393747"/>
<path d="M8.42253 58.7292C8.42253 58.7292 8.42253 61.4205 8.62389 61.6877C8.82526 61.9549 26.6384 61.1494 26.8243 60.8435C27.0102 60.5376 26.5455 58.2141 26.4913 57.9508L8.34895 58.6904L8.42253 58.7292Z" fill="#B10461"/>
<path d="M31.7423 29.8409C30.6076 27.1573 25.5464 25.922 25.5464 25.922C25.5464 25.922 25.1824 24.5279 24.617 23.9587C24.0516 23.3894 22.8589 23.9587 22.8589 23.9587C22.572 23.3439 22.0587 22.8639 21.4261 22.6188C20.4077 22.2548 18.0765 22.6188 18.0765 22.6188C18.0765 22.6188 12.3608 22.6382 11.8109 22.8395C11.6609 22.8859 11.5324 22.9844 11.4486 23.1172C11.3648 23.25 11.3312 23.4083 11.3539 23.5637C10.5021 23.7985 9.67578 24.1176 8.88721 24.5163C7.94621 25.0546 6.47082 26.9366 6.47082 26.9366C6.47082 26.9366 3.77948 28.2145 2.70682 29.4924C1.63416 30.7703 0.383368 49.9659 0.0154873 52.6727C-0.414352 56.0339 5.56854 55.7706 5.69633 55.7048C5.75846 56.1343 5.90734 56.5467 6.13392 56.9169C6.43597 57.339 8.03915 58.4658 8.36056 58.6904L26.5067 57.9547V57.9276C26.5067 57.9276 27.4477 57.7262 27.7149 57.1221C27.9821 56.518 27.6685 53.7879 27.6685 53.7879C27.6685 53.7879 34.7898 51.1547 36.0794 48.99C37.3689 46.8253 32.8769 32.5245 31.7423 29.8409Z" fill="#E5097F"/>
<path d="M12.6861 18.456C12.6861 18.456 12.2717 23.7496 12.2717 23.9858C12.2717 24.2221 10.5988 25.4109 10.5988 25.4109L17.7202 29.1981L19.9972 24.3808C19.9972 24.3808 18.4482 24.9346 18.243 23.8271C18.0378 22.7196 17.635 17.9216 17.635 17.9216L12.6861 18.456Z" fill="#FFA778"/>
<path d="M8.40315 10.6724C8.06238 8.6858 9.92889 3.43867 14.812 2.54027C19.6951 1.64186 19.9972 9.89787 19.9972 9.89787C21.2518 8.94913 23.2539 9.69264 22.7776 11.7295C22.3013 13.7664 19.9972 13.7626 19.9972 13.7626C19.8965 15.6988 17.8983 19.3234 14.0298 18.7967C12.9318 18.6518 11.8973 18.1994 11.0455 17.4915C10.1938 16.7837 9.55968 15.8494 9.21636 14.7965C9.21636 14.7965 8.63937 15.509 7.21431 14.9979C5.78926 14.4867 5.55305 12.5234 6.16489 11.3036C6.77673 10.0837 8.26761 10.7924 8.26761 10.7924L8.40315 10.6724Z" fill="#FFA778"/>
<path d="M14.3512 9.16219C14.3512 9.16219 15.4626 12.1943 15.1257 12.446C14.7888 12.6977 14.022 12.6667 13.964 12.446C13.9059 12.2253 14.0917 9.08087 14.3512 9.16219Z" fill="#FF6557"/>
<path d="M13.0307 11.9233C13.0307 12.1324 12.4847 12.3105 11.8148 12.3105C11.1448 12.3105 10.5988 12.1401 10.5988 11.9233C10.5988 11.7064 11.1448 11.536 11.8148 11.536C12.4847 11.536 13.0307 11.7141 13.0307 11.9233Z" fill="#FF6557"/>
<path d="M18.243 11.5475C18.243 11.7566 17.697 11.9348 17.027 11.9348C16.3571 11.9348 15.8111 11.7682 15.8111 11.5475C15.8111 11.3268 16.3532 11.1603 17.027 11.1603C17.7008 11.1603 18.243 11.3345 18.243 11.5475Z" fill="#FF6557"/>
<path d="M19.9972 9.93669V13.8091C20.4794 13.868 20.9684 13.7903 21.4086 13.5849C21.8488 13.3795 22.2225 13.0547 22.4872 12.6474C23.3546 11.2494 22.8047 8.38772 19.9972 9.93669Z" fill="#FF6557"/>
<path d="M8.40316 10.6723L9.21636 14.8004C9.21636 14.8004 8.40703 15.7685 6.67218 14.8004C4.93734 13.8322 5.65761 11.2222 6.54439 10.6723C6.83021 10.5191 7.14948 10.439 7.47377 10.439C7.79807 10.439 8.11733 10.5191 8.40316 10.6723Z" fill="#FF6557"/>
<path d="M11.8148 10.8079C12.0671 10.8079 12.2717 10.6034 12.2717 10.351C12.2717 10.0986 12.0671 9.89404 11.8148 9.89404C11.5624 9.89404 11.3578 10.0986 11.3578 10.351C11.3578 10.6034 11.5624 10.8079 11.8148 10.8079Z" fill="#4D1E1A"/>
<path d="M16.7753 10.351C17.0277 10.351 17.2323 10.1464 17.2323 9.89408C17.2323 9.64171 17.0277 9.43713 16.7753 9.43713C16.523 9.43713 16.3184 9.64171 16.3184 9.89408C16.3184 10.1464 16.523 10.351 16.7753 10.351Z" fill="#4D1E1A"/>
<path d="M12.1478 7.408C12.0492 7.30425 11.9281 7.22449 11.7938 7.17481C11.6596 7.12514 11.5157 7.10688 11.3733 7.12144C10.9473 7.22212 10.5988 8.00048 10.7963 7.89592C10.9938 7.79137 11.2533 7.3228 11.5708 7.42349C11.8883 7.52417 12.0975 7.5629 12.1478 7.408Z" fill="#4D1E1A"/>
<path d="M17.1084 7.10595C17.1084 7.10595 16.5004 6.43215 16.179 6.56381C15.8576 6.69547 15.6407 7.25697 15.722 7.33829C15.8034 7.41961 16.1829 7.15242 16.3261 6.95105C16.4694 6.74969 16.7715 7.18727 16.938 7.22213C16.9569 7.22801 16.9769 7.22954 16.9965 7.2266C17.0161 7.22367 17.0348 7.21634 17.0512 7.20517C17.0676 7.194 17.0812 7.17928 17.0911 7.1621C17.101 7.14492 17.1069 7.12573 17.1084 7.10595Z" fill="#4D1E1A"/>
<path d="M11.5902 13.3715C11.5902 13.3715 11.7141 13.3095 11.9503 13.5457C12.1865 13.782 12.5776 14.8817 13.4993 14.9747C14.4209 15.0676 15.4006 14.5874 15.6523 14.5874C15.904 14.5874 15.966 14.6532 15.966 14.6532C15.6137 14.9422 15.207 15.1576 14.77 15.2866C14.333 15.4156 13.8746 15.4557 13.4218 15.4045C11.9348 15.1954 11.5902 13.3715 11.5902 13.3715Z" fill="#4D1E1A"/>
<path d="M7.75259 10.4594C7.75259 10.4594 8.40315 10.6685 8.43026 10.8118C8.45737 10.955 8.63163 11.838 8.63163 11.838C8.63163 11.838 9.23572 11.0828 9.21636 10.6762C9.10941 10.1316 8.9539 9.59766 8.75167 9.08079C8.75167 9.08079 9.23573 9.94434 9.45646 9.76234C9.67718 9.58034 9.015 8.00039 9.015 8.00039C9.18673 8.01747 9.36006 7.99375 9.52089 7.93117C9.68171 7.86859 9.82549 7.76891 9.94051 7.64025C10.4439 7.17556 10.4827 5.5685 10.4827 5.5685C10.4827 5.5685 15.815 6.75346 17.453 6.85415C19.091 6.95483 19.2033 6.4669 19.2033 6.4669C19.2033 6.4669 19.1607 7.97715 19.2033 8.54252C19.3501 9.19721 19.5723 9.83267 19.8655 10.4361C19.7029 10.6478 19.6181 10.909 19.6254 11.1758C19.6874 11.5165 19.8268 12.2639 20.0127 12.0626C20.1986 11.8612 20.2528 9.80106 20.2528 9.80106L20.7291 9.61132C21.0228 9.09658 21.1575 8.5064 21.1163 7.91519C20.9255 7.23398 20.6414 6.58242 20.2721 5.97898C20.2721 5.97898 20.6942 6.1029 20.6942 5.90153C20.6583 5.72181 20.5755 5.5548 20.4541 5.41748C20.4541 5.41748 22.1425 3.60519 21.8831 3.42706C21.6236 3.24892 19.8113 3.68651 19.3079 3.42706C18.8045 3.1676 18.061 0.104517 16.148 0.0270686C14.235 -0.0503799 12.4963 2.57899 11.5514 2.57899C11.5514 2.57899 12.264 2.19175 12.1478 2.01362C12.0316 1.83549 11.5514 1.87421 10.4246 2.23435C9.29768 2.59448 5.67309 4.80951 5.95578 6.95096C6.09439 8.16315 6.44158 9.34225 6.98198 10.4361H7.84553L7.75259 10.4594Z" fill="#4D1E1A"/>
<path d="M7.4854 10.351C7.4854 10.351 6.30044 9.14283 5.67311 9.1893C5.04577 9.23576 4.91798 9.41777 4.91798 9.41777L5.1968 10.1923C5.57898 10.0678 5.98007 10.0114 6.38176 10.0257C6.65891 10.0661 6.91703 10.1905 7.12139 10.382C7.12139 10.382 6.4321 10.2774 6.34691 10.382C6.28418 10.4561 6.23914 10.5435 6.21524 10.6376L6.45921 10.7809L7.4854 10.351Z" fill="#4D1E1A"/>
<path d="M11.6095 2.72623C11.6095 2.72623 12.4576 2.13375 12.5738 1.72715C12.6899 1.32054 12.7093 0.56542 12.8797 0.433758C13.0749 0.315765 13.2844 0.223358 13.5031 0.158813V0.546056C13.5031 0.546056 13.0036 0.681593 12.9571 0.821C12.9107 0.960408 12.7364 1.89753 12.7364 1.89753C12.8629 1.59743 13.0213 1.3118 13.2088 1.0456C13.356 0.921678 13.7626 0.658353 13.7626 0.658353V0.906188C13.5812 1.03895 13.4079 1.18249 13.2437 1.33603C13.1321 1.6488 13.0403 1.96826 12.9688 2.29252L11.6095 2.72623Z" fill="#4D1E1A"/>
<path d="M12.6861 18.456C13.4883 18.7953 14.3638 18.9243 15.2299 18.8308C16.0959 18.7373 16.9237 18.4244 17.635 17.9216L17.8054 19.8578C17.1388 20.5471 16.2529 20.9825 15.2999 21.0893C14.333 21.1151 13.3777 20.8739 12.5389 20.3922L12.6861 18.456Z" fill="#FF6557"/>
<path d="M22.2819 46.2716C22.2819 46.2716 23.7999 54.9613 23.5869 55.1278C23.374 55.2943 11.687 56.1811 11.5243 56.0185C11.3617 55.8558 11.6947 45.8107 12.0316 45.6404C12.3685 45.47 22.0689 45.4312 22.1967 45.6404C22.2744 45.8411 22.3036 46.0574 22.2819 46.2716Z" fill="#B10461"/>
<path d="M28.1603 28.8534C28.1603 28.8534 27.2464 30.0926 27.1805 30.6812C27.1147 31.2698 28.5514 41.8531 28.5514 41.8531C28.5514 41.8531 26.2666 31.6609 26.2666 31.3356" stroke="#256E52" stroke-width="0.55" stroke-miterlimit="10"/>
<path d="M31.022 41.8532C31.022 41.8532 28.7256 41.6789 27.9008 42.3256C27.076 42.9723 22.3594 46.7247 22.3594 46.7247" stroke="#256E52" stroke-width="0.55" stroke-miterlimit="10"/>
<path d="M5.46399 29.7712C5.46399 29.7712 7.62093 31.5448 7.87264 32.6446C8.12434 33.7443 8.92981 44.5639 8.92981 44.5639C8.92981 44.5639 8.54257 32.0095 8.42253 31.4635C8.24745 30.8863 8.03531 30.3211 7.78744 29.7712" stroke="#256E52" stroke-width="0.55" stroke-miterlimit="10"/>
<path d="M4.5772 43.5493C4.40682 43.5493 7.03619 43.801 8.36443 44.5639C9.69267 45.3268 11.8496 46.7324 11.8496 46.7324" stroke="#256E52" stroke-width="0.55" stroke-miterlimit="10"/>
<path d="M9.8282 25.1669L17.302 28.9812C17.302 28.9812 11.4933 27.8195 10.5988 27.5794C9.70429 27.3393 8.08174 27.5445 8.34119 27.6181C8.60065 27.6917 10.684 28.9735 11.3501 28.8534C12.0161 28.7334 16.5159 29.5117 16.5159 29.5117" stroke="#256E52" stroke-width="0.55" stroke-miterlimit="10"/>
<path d="M18.6031 29.202L21.43 23.3934C21.43 23.3934 21.0854 22.5569 20.0166 23.0991" stroke="#256E52" stroke-width="0.55" stroke-miterlimit="10"/>
<path d="M19.4899 29.2019C19.4899 29.2019 23.3856 24.3769 23.6063 24.7719C23.827 25.1669 22.3594 26.9753 22.3594 26.9753" stroke="#256E52" stroke-width="0.55" stroke-miterlimit="10"/>
<path d="M15.2999 30.0732C15.1063 30.5713 15.1063 31.124 15.2999 31.6221C15.6407 32.3269 16.0008 33.2563 15.9544 33.872C15.9079 34.4877 15.5671 36.0793 15.9544 36.3C16.3416 36.5208 16.7869 36.4782 16.876 36.3C16.9651 36.1219 16.6979 33.8294 16.4346 32.9891C16.1712 32.1488 16.0473 31.1342 15.9544 30.7818C15.9002 30.55 15.9002 30.3089 15.9544 30.077C15.9544 30.077 15.3735 29.8137 15.2999 30.0732Z" fill="#393747"/>
<path d="M19.304 30.139C19.304 30.139 19.0601 30.4953 19.4899 31.1575C19.9197 31.8197 20.3651 33.9379 20.3651 34.511C20.3651 35.0841 20.2334 35.9244 20.6749 36.06C21.1163 36.1955 21.7863 35.9322 21.5617 35.3552C21.3371 34.7782 21.1744 33.4577 20.6284 32.3076C20.0824 31.1575 19.792 30.5418 19.792 30.5418V29.9493C19.792 29.9493 19.3737 29.7905 19.304 30.139Z" fill="#393747"/>
<path d="M6.67606 12.0858L8.3141 12.8293L6.20363 13.3637" stroke="#4D1E1A" stroke-width="0.28" stroke-miterlimit="10"/>
<path d="M21.8792 10.6724L20.4232 11.9232L21.8792 11.6405" stroke="#4D1E1A" stroke-width="0.28" stroke-miterlimit="10"/>
</g>
<defs>
<clipPath id="clip0_12_550">
<rect width="36.3078" height="109.446" fill="white"/>
</clipPath>
</defs>
</svg>
