<svg width="38" height="123" viewBox="0 0 38 123" fill="none" xmlns="http://www.w3.org/2000/svg">
<path d="M36.2596 118.899C36.2596 120.27 28.9799 121.389 20.0165 121.389C11.0531 121.389 3.78078 120.27 3.78078 118.899C3.78078 117.529 11.0456 116.424 20.009 116.424C28.9724 116.424 36.2596 117.533 36.2596 118.899Z" fill="#D3D1DE"/>
<path d="M9.47389 64.8092L8.48833 115.652L10.3811 116.708L7.50276 122.144L13.4012 117.765L21.0767 65.8358L24.123 116.708L31.0742 122.144L26.7586 116.857H30.3649L31.0742 61.9271L9.47389 64.8092Z" fill="#393747"/>
<path d="M11.7064 9.06884C11.7064 9.06884 10.8552 8.29233 9.9555 9.36003C9.0558 10.4277 9.80991 12.4996 10.8328 12.9887C11.0872 13.1369 11.3764 13.215 11.6709 13.215C11.9654 13.215 12.2546 13.1369 12.509 12.9887C12.509 12.9887 13.3938 21.6833 13.1661 22.2657C12.9732 22.6952 12.7109 23.09 12.3895 23.4342L16.7649 24.4384L21.8196 22.5718C21.4853 22.2333 21.191 21.8575 20.9423 21.4519C20.7482 21.03 19.7141 16.6435 19.7141 16.6435C20.5053 15.9932 21.2126 15.2471 21.8196 14.4222C22.9396 12.929 22.7566 10.8906 22.7566 10.8906C23.0996 10.9424 23.4493 10.8599 23.733 10.6603C24.0167 10.4608 24.2126 10.1595 24.2798 9.81921C24.6531 8.52379 24.0857 6.15694 22.3385 7.65022C22.3385 7.65022 21.7225 2.20721 16.9739 2.36774C12.2253 2.52827 11.2472 7.85928 11.7064 9.06884Z" fill="#FFA778"/>
<path d="M22.3385 7.62389L22.7641 10.9464C22.8898 11.0039 23.0256 11.036 23.1637 11.0408C23.3018 11.0456 23.4396 11.0231 23.569 10.9746C23.6984 10.926 23.8169 10.8523 23.9177 10.7578C24.0186 10.6633 24.0997 10.5498 24.1566 10.4238C24.6979 9.47929 24.5598 7.26177 23.4921 6.94445C22.4244 6.62713 22.3385 7.62389 22.3385 7.62389Z" fill="#FF6557"/>
<path d="M11.7064 9.06892L12.5165 13.0522C12.5165 13.0522 10.9634 13.9333 9.85841 12.2347C8.75339 10.5361 10.0899 7.79216 11.7064 9.06892Z" fill="#FF6557"/>
<path d="M11.9191 7.24699C11.9191 7.24699 13.4498 12.522 13.9164 12.8207C14.3831 13.1193 14.9206 12.2159 15.9921 11.7567C17.0635 11.2975 19.7663 11.4842 20.2031 12.2756C20.6399 13.067 21.0804 13.179 21.2409 12.578C21.4015 11.977 22.2639 8.94559 22.5326 9.14719C22.8014 9.34878 23.4585 12.7124 22.0361 14.6275C20.6138 16.5427 18.4261 17.7448 15.8315 17.2408C13.237 16.7368 12.6322 13.9182 12.1655 12.3129C11.6989 10.7077 10.7992 6.69821 11.9191 7.24699Z" fill="#4D1E1A"/>
<path d="M16.9739 7.93762L18.4261 11.738C18.4261 11.738 17.4331 12.1113 17.2053 12.0516C16.9776 11.9919 16.9739 7.93762 16.9739 7.93762Z" fill="#FF6557"/>
<path d="M15.615 13.3881C15.615 13.3881 15.7606 13.3321 15.9323 13.6494C16.104 13.9667 16.7536 14.4931 17.3099 14.3961C17.8661 14.299 18.497 13.7091 18.6426 13.7875C18.7882 13.8659 18.1424 14.8328 17.1493 14.7395C16.7854 14.7002 16.4425 14.5492 16.1678 14.3072C15.8931 14.0652 15.7 13.7442 15.615 13.3881Z" fill="white"/>
<path d="M11.8631 8.32215C12.3454 7.9962 12.7259 7.5407 12.9607 7.00806C13.4311 6.04863 13.0578 4.67481 13.0578 4.67481C13.0578 4.67481 15.4881 4.26043 17.0598 3.40179L18.6314 2.53942C18.6314 2.53942 19.6357 4.34629 20.6474 4.85401C21.1655 5.47949 21.6125 6.16063 21.9801 6.88487C22.3534 7.7547 22.2862 8.70667 22.4654 8.63201C22.6446 8.55734 22.4654 7.38138 22.4654 7.38138L23.4025 6.88487C23.5647 6.53771 23.638 6.15567 23.6158 5.77314C23.5937 5.39061 23.4767 5.01959 23.2755 4.69348C22.57 3.65565 20.289 1.85251 19.4117 1.85251H18.7136C18.7136 1.85251 19.7738 1.53892 19.2847 1.26267C18.7957 0.986411 16.9627 1.47919 16.9627 1.47919C16.9627 1.47919 18.7733 0.14644 17.4405 0.00831188C16.1078 -0.129817 13.9463 1.47919 12.5053 2.93141C11.0642 4.38363 9.92935 5.58198 10.284 6.88487C10.4443 7.54463 10.6746 8.18539 10.9709 8.79627C10.9709 8.79627 11.6802 9.16959 11.6952 9.06879C11.7101 8.96799 11.8631 8.32215 11.8631 8.32215Z" fill="#4D1E1A"/>
<path d="M10.228 10.6405L11.5757 11.3871L10.228 11.5999" stroke="#4D1E1A" stroke-width="0.28" stroke-miterlimit="10"/>
<path d="M23.7608 7.93762L22.9171 9.25544L23.7608 8.96052" stroke="#4D1E1A" stroke-width="0.28" stroke-miterlimit="10"/>
<path d="M12.5836 13.7091C12.5836 13.7091 13.6625 17.013 16.4811 17.2183C17.1313 17.3048 17.7921 17.2629 18.4261 17.0951C18.8746 16.9932 19.3076 16.8325 19.7141 16.6173C19.7141 16.6173 20.1508 18.4316 20.1508 18.4391C19.6077 18.912 18.9766 19.2731 18.2938 19.5018C17.6109 19.7305 16.8896 19.8222 16.1712 19.7718C13.8455 19.5441 13.0242 18.6033 13.0242 18.6033L12.5836 13.7091Z" fill="#FF6557"/>
<path d="M15.4246 9.25536C15.4246 9.34396 15.3984 9.43057 15.3491 9.50424C15.2999 9.57791 15.23 9.63533 15.1481 9.66924C15.0662 9.70315 14.9762 9.71202 14.8893 9.69473C14.8024 9.67745 14.7225 9.63478 14.6599 9.57213C14.5972 9.50948 14.5546 9.42965 14.5373 9.34275C14.52 9.25585 14.5289 9.16578 14.5628 9.08392C14.5967 9.00206 14.6541 8.9321 14.7278 8.88287C14.8014 8.83365 14.8881 8.80737 14.9767 8.80737C15.0955 8.80737 15.2094 8.85457 15.2934 8.93858C15.3774 9.0226 15.4246 9.13654 15.4246 9.25536Z" fill="#4D1E1A"/>
<path d="M19.5685 9.0427C19.8159 9.0427 20.0165 8.84213 20.0165 8.59471C20.0165 8.3473 19.8159 8.14673 19.5685 8.14673C19.3211 8.14673 19.1205 8.3473 19.1205 8.59471C19.1205 8.84213 19.3211 9.0427 19.5685 9.0427Z" fill="#4D1E1A"/>
<path d="M14.9767 11.2042C16.0529 11.2042 16.9254 10.3317 16.9254 9.25549C16.9254 8.17924 16.0529 7.30676 14.9767 7.30676C13.9004 7.30676 13.0279 8.17924 13.0279 9.25549C13.0279 10.3317 13.9004 11.2042 14.9767 11.2042Z" stroke="#40BD8D" stroke-width="1.02" stroke-miterlimit="10"/>
<path d="M19.7439 10.271C20.8202 10.271 21.6927 9.39852 21.6927 8.32227C21.6927 7.24601 20.8202 6.37354 19.7439 6.37354C18.6677 6.37354 17.7952 7.24601 17.7952 8.32227C17.7952 9.39852 18.6677 10.271 19.7439 10.271Z" stroke="#40BD8D" stroke-width="1.02" stroke-miterlimit="10"/>
<path d="M16.903 8.96417L17.7952 8.80737" stroke="#40BD8D" stroke-width="1.02" stroke-miterlimit="10"/>
<path d="M21.8196 22.5607C21.8196 22.5607 23.7086 24.3526 25.5528 24.4273C27.397 24.5019 37.5289 26.1035 37.779 28.1978C38.0292 30.2921 38.115 46.371 37.779 48.9656C37.4431 51.5602 34.5125 53.1543 34.5125 53.1543C34.5125 53.1543 35.2591 57.425 34.5983 58.0933C34.2259 58.4699 33.8346 58.8275 33.4261 59.1647C33.4261 59.1647 33.8442 64.1299 33.1723 64.7944C32.5003 65.4589 8.80193 66.5527 8.63767 65.8807C8.47341 65.2088 8.63393 60.5385 8.63393 60.5385C8.63393 60.5385 7.37584 60.1652 6.87186 59.7322C6.36788 59.2991 6.03563 56.6859 6.03563 56.6859C5.36739 56.7957 4.68151 56.69 4.07742 56.3839C3.47332 56.0778 2.98238 55.5873 2.67574 54.9835C1.50352 52.8332 -1.17693 32.5843 0.581412 30.7438C2.33975 28.9034 10.2168 24.9424 10.9672 24.4422C11.7176 23.942 12.3746 23.438 12.3746 23.438L17.1232 23.8561L21.8196 22.5607Z" fill="#E5097F"/>
<path d="M8.63393 60.5385L33.4224 59.1796C33.4224 59.1796 33.7957 64.3239 33.6053 64.7794C33.4149 65.2348 32.0598 65.526 29.3047 65.8657C26.5496 66.2054 8.96992 66.8849 8.63393 66.534C8.29794 66.1831 8.63393 60.3555 8.63393 60.3555" fill="#B10461"/>
<path d="M34.3333 28.2723C34.3333 28.2723 31.1787 29.1645 30.9398 29.7021C30.7009 30.2397 29.51 39.8191 29.51 39.8191C29.51 39.8191 30.1073 29.0488 30.3462 28.6904C30.8315 28.1897 31.3585 27.7314 31.9217 27.3203" stroke="#256E52" stroke-width="0.55" stroke-miterlimit="10"/>
<path d="M1.30563 30.714C1.30563 30.714 2.91092 32.0244 3.56423 32.618C4.21754 33.2116 8.48831 43.7392 8.48831 43.7392C8.48831 43.7392 4.28099 32.5396 4.22126 32.2521C4.16153 31.9647 2.91092 30.2885 2.91092 30.2885" stroke="#256E52" stroke-width="0.55" stroke-miterlimit="10"/>
<path d="M3.40746 47.099C3.40746 47.099 6.16256 45.1055 8.49581 44.3439C10.8291 43.5824 25.396 40.7638 25.8291 40.8721C26.2621 40.9803 27.453 43.7578 27.453 43.7578" stroke="#256E52" stroke-width="0.55" stroke-miterlimit="10"/>
<path d="M28.2034 43.7389L19.0085 50.7648C19.0085 50.7648 28.8529 54.0127 30.4769 53.9604C32.1008 53.9081 34.5125 53.1578 34.5125 53.1578" stroke="#256E52" stroke-width="0.55" stroke-miterlimit="10"/>
<path d="M28.4983 43.0707C28.4983 43.0707 29.8049 41.2041 31.2049 41.0398C32.6048 40.8756 35.3599 41.5364 35.4047 41.3572C35.4495 41.178 34.0981 40.3156 33.1648 40.3604C32.2315 40.4052 29.8684 41.2638 29.8684 41.2638L32.8027 38.9156" stroke="#256E52" stroke-width="0.55" stroke-miterlimit="10"/>
<path d="M26.2322 41.1557C26.8085 40.9585 27.4042 40.8233 28.0092 40.7526C28.4535 40.7824 28.9388 40.7526 28.9836 40.8534C29.0284 40.9542 30.0774 40.9392 30.3649 41.2267C29.9125 41.5298 29.4866 41.8707 29.0919 42.2458C28.7185 42.6565 27.6807 43.9183 27.6583 43.9221C27.6359 43.9258 26.2322 41.1557 26.2322 41.1557Z" fill="#FFA778"/>
<path d="M12.3111 43.4105C12.3111 43.4105 10.1421 41.3685 8.9251 40.857C7.70808 40.3456 6.53213 40.1328 6.35293 40.2672C6.17374 40.4016 6.25587 40.7973 6.45373 41.0362C6.59474 41.2242 6.71256 41.4285 6.80465 41.6447C6.80465 41.6447 4.96045 41.7418 4.09808 42.3914C3.23571 43.0409 2.85865 44.4334 2.74292 44.6313C2.62719 44.8291 2.78025 45.9454 2.85865 46.1022C3.10019 46.3988 3.36082 46.6794 3.63889 46.9421C3.63889 46.9421 5.92361 45.0755 7.82754 44.4931C9.73148 43.9108 12.3111 43.4105 12.3111 43.4105Z" fill="#FFA778"/>
<path d="M2.85866 46.0798C2.85866 46.0798 5.30764 43.9407 6.53586 43.5748" stroke="#FF6557" stroke-width="1.02" stroke-miterlimit="10"/>
<path d="M6.03934 56.682C6.03934 56.682 9.1939 56.8537 10.4931 56.1967C11.7922 55.5396 19.0085 50.7723 19.0085 50.7723" stroke="#256E52" stroke-width="0.55" stroke-miterlimit="10"/>
<path d="M9.45151 25.2859C9.45151 25.2859 12.2551 31.3412 18.4112 31.162C24.5672 30.9828 26.7437 24.5579 26.7437 24.5579C25.5376 24.6723 24.3295 24.362 23.3278 23.6806L21.8047 22.5607L17.1232 23.8524L12.3746 23.4342L9.45151 25.2859Z" fill="#D3D1DE"/>
<path d="M16.9739 24.4384L15.951 27.0777L17.2912 28.179L16.623 31.0461C17.2066 31.2246 17.8229 31.2692 18.4261 31.1768C19.6282 31.0573 20.1509 30.9528 20.1509 30.9528L17.8848 28.1641L18.6912 26.5252L16.9739 24.4384Z" fill="#393747"/>
<path d="M11.3816 24.6436L15.615 27.8168L16.9739 24.4383L19.2437 27.3203L23.2382 23.9866" stroke="#256E52" stroke-width="0.55" stroke-miterlimit="10"/>
</svg>
