<svg width="243" height="192" viewBox="0 0 243 192" fill="none" xmlns="http://www.w3.org/2000/svg">
<path d="M195 45.6264H193.942V16.7265C193.942 14.5299 193.508 12.3549 192.665 10.3255C191.823 8.29619 190.587 6.45228 189.03 4.89908C187.472 3.34588 185.623 2.11382 183.588 1.27323C181.553 0.432645 179.372 1.03939e-06 177.17 0H115.773C111.324 -9.79557e-06 107.058 1.76223 103.913 4.89904C100.767 8.03586 99 12.2903 99 16.7264V175.274C99 179.71 100.767 183.964 103.913 187.101C107.058 190.238 111.324 192 115.773 192H177.17C181.618 192 185.884 190.238 189.03 187.101C192.175 183.964 193.942 179.71 193.942 175.274V66.1978H195L195 45.6264Z" fill="#E6E6E6"/>
<path d="M191 16.5396V175.46C191 178.786 189.676 181.976 187.32 184.327C184.964 186.679 181.769 188 178.437 188H116.563C113.231 188 110.036 186.679 107.68 184.327C105.324 181.976 104 178.786 104 175.46V16.5396C104 13.2139 105.324 10.0245 107.68 7.67284C110.036 5.32122 113.231 4.00006 116.563 4H124.069C123.7 4.90465 123.56 5.8859 123.66 6.85744C123.76 7.82898 124.098 8.76104 124.644 9.57163C125.19 10.3822 125.927 11.0465 126.791 11.5061C127.654 11.9656 128.617 12.2063 129.596 12.207H164.873C165.852 12.2063 166.815 11.9656 167.679 11.506C168.542 11.0465 169.279 10.3822 169.825 9.57162C170.371 8.76103 170.709 7.82897 170.809 6.85743C170.909 5.8859 170.769 4.90465 170.4 4H178.437C181.769 4.00006 184.964 5.32122 187.32 7.67284C189.676 10.0245 191 13.2139 191 16.5396Z" fill="white"/>
<path d="M119.5 19C117.246 19 115.084 19.8955 113.49 21.4896C111.896 23.0836 111 25.2456 111 27.5C111 29.7543 111.896 31.9163 113.49 33.5104C115.084 35.1044 117.246 36 119.5 36H119.5C121.754 36 123.916 35.1045 125.51 33.5104C127.104 31.9163 128 29.7543 128 27.5C128 25.2457 127.104 23.0836 125.51 21.4896C123.916 19.8955 121.754 19 119.5 19Z" fill="#E6E6E6"/>
<path d="M180.913 34H137.087C136.533 34 136.003 33.7893 135.611 33.4142C135.22 33.0391 135 32.5304 135 32C135 31.4696 135.22 30.9609 135.611 30.5858C136.003 30.2107 136.533 30 137.087 30H180.913C181.467 30 181.997 30.2107 182.389 30.5858C182.78 30.9609 183 31.4696 183 32C183 32.5304 182.78 33.0391 182.389 33.4142C181.997 33.7893 181.467 34 180.913 34Z" fill="#E6E6E6"/>
<path d="M150.029 26H136.971C136.448 26 135.947 25.7366 135.577 25.2678C135.208 24.7989 135 24.163 135 23.5C135 22.837 135.208 22.2011 135.577 21.7322C135.947 21.2634 136.448 21 136.971 21H150.029C150.552 21 151.053 21.2634 151.423 21.7322C151.792 22.2011 152 22.837 152 23.5C152 24.163 151.792 24.7989 151.423 25.2678C151.053 25.7366 150.552 26 150.029 26Z" fill="#E6E6E6"/>
<path d="M119.5 54C117.246 54 115.084 54.8955 113.49 56.4896C111.896 58.0836 111 60.2456 111 62.5C111 64.7543 111.896 66.9163 113.49 68.5104C115.084 70.1044 117.246 71 119.5 71H119.5C121.754 71 123.916 70.1045 125.51 68.5104C127.104 66.9163 128 64.7543 128 62.5C128 60.2457 127.104 58.0837 125.51 56.4896C123.916 54.8955 121.754 54 119.5 54Z" fill="#E6E6E6"/>
<path d="M180.913 70H137.087C136.533 70 136.003 69.7366 135.611 69.2678C135.22 68.7989 135 68.163 135 67.5C135 66.837 135.22 66.2011 135.611 65.7322C136.003 65.2634 136.533 65 137.087 65H180.913C181.467 65 181.997 65.2634 182.389 65.7322C182.78 66.2011 183 66.837 183 67.5C183 68.163 182.78 68.7989 182.389 69.2678C181.997 69.7366 181.467 70 180.913 70Z" fill="#E6E6E6"/>
<path d="M150.029 61H136.971C136.448 61 135.947 60.7893 135.577 60.4142C135.208 60.0391 135 59.5304 135 59C135 58.4696 135.208 57.9609 135.577 57.5858C135.947 57.2107 136.448 57 136.971 57H150.029C150.552 57 151.053 57.2107 151.423 57.5858C151.792 57.9609 152 58.4696 152 59C152 59.5304 151.792 60.0391 151.423 60.4142C151.053 60.7893 150.552 61 150.029 61Z" fill="#E6E6E6"/>
<path d="M119.5 125C117.246 125 115.084 125.896 113.49 127.49C111.896 129.084 111 131.246 111 133.5C111 135.754 111.896 137.916 113.49 139.51C115.084 141.104 117.246 142 119.5 142H119.5C121.754 142 123.916 141.104 125.51 139.51C127.104 137.916 128 135.754 128 133.5C128 131.246 127.104 129.084 125.51 127.49C123.916 125.896 121.754 125 119.5 125Z" fill="#E6E6E6"/>
<path d="M180.913 140H137.087C136.533 140 136.003 139.789 135.611 139.414C135.22 139.039 135 138.53 135 138C135 137.47 135.22 136.961 135.611 136.586C136.003 136.211 136.533 136 137.087 136H180.913C181.467 136 181.997 136.211 182.389 136.586C182.78 136.961 183 137.47 183 138C183 138.53 182.78 139.039 182.389 139.414C181.997 139.789 181.467 140 180.913 140Z" fill="#E6E6E6"/>
<path d="M150.029 132H136.971C136.448 132 135.947 131.737 135.577 131.268C135.208 130.799 135 130.163 135 129.5C135 128.837 135.208 128.201 135.577 127.732C135.947 127.263 136.448 127 136.971 127H150.029C150.552 127 151.053 127.263 151.423 127.732C151.792 128.201 152 128.837 152 129.5C152 130.163 151.792 130.799 151.423 131.268C151.053 131.737 150.552 132 150.029 132Z" fill="#E6E6E6"/>
<path d="M119.5 160C117.246 160 115.084 160.896 113.49 162.49C111.896 164.084 111 166.246 111 168.5C111 170.754 111.896 172.916 113.49 174.51C115.084 176.104 117.246 177 119.5 177H119.5C121.754 177 123.916 176.104 125.51 174.51C127.104 172.916 128 170.754 128 168.5C128 166.246 127.104 164.084 125.51 162.49C123.916 160.896 121.754 160 119.5 160Z" fill="#E6E6E6"/>
<path d="M180.913 176H137.087C136.533 176 136.003 175.737 135.611 175.268C135.22 174.799 135 174.163 135 173.5C135 172.837 135.22 172.201 135.611 171.732C136.003 171.263 136.533 171 137.087 171H180.913C181.467 171 181.997 171.263 182.389 171.732C182.78 172.201 183 172.837 183 173.5C183 174.163 182.78 174.799 182.389 175.268C181.997 175.737 181.467 176 180.913 176Z" fill="#E6E6E6"/>
<path d="M150.029 167H136.971C136.448 167 135.947 166.789 135.577 166.414C135.208 166.039 135 165.53 135 165C135 164.47 135.208 163.961 135.577 163.586C135.947 163.211 136.448 163 136.971 163H150.029C150.552 163 151.053 163.211 151.423 163.586C151.792 163.961 152 164.47 152 165C152 165.53 151.792 166.039 151.423 166.414C151.053 166.789 150.552 167 150.029 167Z" fill="#E6E6E6"/>
<path d="M197.668 118H96.3317C95.1833 117.999 94.0822 117.533 93.2702 116.706C92.4581 115.878 92.0013 114.756 92 113.586V80.414C92.0013 79.2437 92.4581 78.1218 93.2702 77.2943C94.0823 76.4668 95.1833 76.0013 96.3317 76H197.668C198.817 76.0013 199.918 76.4668 200.73 77.2943C201.542 78.1218 201.999 79.2437 202 80.414V113.586C201.999 114.756 201.542 115.878 200.73 116.706C199.918 117.533 198.817 117.999 197.668 118Z" fill="white"/>
<path d="M108.5 110C106.028 110 103.611 109.267 101.555 107.893C99.4998 106.52 97.8976 104.568 96.9515 102.284C96.0054 99.9995 95.7579 97.4861 96.2402 95.0614C96.7225 92.6366 97.913 90.4093 99.6612 88.6612C101.409 86.913 103.637 85.7225 106.061 85.2402C108.486 84.7579 110.999 85.0054 113.284 85.9515C115.568 86.8976 117.52 88.4998 118.893 90.5554C120.267 92.611 121 95.0277 121 97.5C120.996 100.814 119.678 103.991 117.335 106.335C114.991 108.678 111.814 109.996 108.5 110ZM108.5 85.5467C106.136 85.5467 103.825 86.2478 101.859 87.5612C99.8934 88.8747 98.3613 90.7415 97.4566 92.9257C96.5519 95.1099 96.3152 97.5133 96.7764 99.832C97.2376 102.151 98.3761 104.281 100.048 105.952C101.719 107.624 103.849 108.762 106.168 109.224C108.487 109.685 110.89 109.448 113.074 108.543C115.258 107.639 117.125 106.107 118.439 104.141C119.752 102.175 120.453 99.8641 120.453 97.5C120.45 94.3309 119.189 91.2926 116.948 89.0517C114.707 86.8108 111.669 85.5503 108.5 85.5467Z" fill="#3F3D56"/>
<path d="M194.084 107H132.916C132.533 107 132.154 106.923 131.8 106.772C131.446 106.622 131.125 106.401 130.854 106.122C130.583 105.844 130.369 105.513 130.222 105.149C130.075 104.785 130 104.394 130 104C130 103.606 130.075 103.215 130.222 102.851C130.369 102.487 130.583 102.156 130.854 101.878C131.125 101.599 131.446 101.378 131.8 101.228C132.154 101.077 132.533 101 132.916 101H194.084C194.467 101 194.846 101.077 195.2 101.228C195.554 101.378 195.875 101.599 196.146 101.878C196.417 102.156 196.631 102.487 196.778 102.851C196.925 103.215 197 103.606 197 104C197 104.394 196.925 104.785 196.778 105.149C196.631 105.513 196.417 105.844 196.146 106.122C195.875 106.401 195.554 106.622 195.2 106.772C194.846 106.923 194.467 107 194.084 107Z" fill="#E5097F"/>
<path d="M152.099 95H132.901C132.52 95.0004 132.143 94.923 131.791 94.7725C131.439 94.6219 131.119 94.4009 130.85 94.1223C130.58 93.8437 130.367 93.5129 130.221 93.1487C130.075 92.7845 130 92.3942 130 92C130 91.6058 130.075 91.2155 130.221 90.8513C130.367 90.4871 130.58 90.1563 130.85 89.8777C131.119 89.5991 131.439 89.3781 131.791 89.2275C132.143 89.077 132.52 88.9996 132.901 89H152.099C152.48 88.9996 152.857 89.077 153.209 89.2275C153.561 89.3781 153.881 89.5991 154.15 89.8777C154.42 90.1563 154.633 90.4871 154.779 90.8513C154.925 91.2155 155 91.6058 155 92C155 92.3942 154.925 92.7845 154.779 93.1487C154.633 93.5129 154.42 93.8437 154.15 94.1223C153.881 94.4009 153.561 94.6219 153.209 94.7725C152.857 94.923 152.48 95.0004 152.099 95Z" fill="#E5097F"/>
<path d="M197.668 118H96.3317C95.1833 117.999 94.0822 117.533 93.2702 116.706C92.4581 115.878 92.0013 114.756 92 113.586V80.414C92.0013 79.2437 92.4581 78.1218 93.2702 77.2943C94.0823 76.4668 95.1833 76.0013 96.3317 76H197.668C198.817 76.0013 199.918 76.4668 200.73 77.2943C201.542 78.1218 201.999 79.2437 202 80.414V113.586C201.999 114.756 201.542 115.878 200.73 116.706C199.918 117.533 198.817 117.999 197.668 118ZM96.3317 76.2675C95.2529 76.2688 94.2186 76.706 93.4557 77.4834C92.6929 78.2607 92.2637 79.3147 92.2625 80.414V113.586C92.2637 114.685 92.6929 115.739 93.4557 116.517C94.2186 117.294 95.2529 117.731 96.3317 117.732H197.668C198.747 117.731 199.781 117.294 200.544 116.517C201.307 115.739 201.736 114.685 201.737 113.586V80.414C201.736 79.3147 201.307 78.2607 200.544 77.4834C199.781 76.706 198.747 76.2688 197.668 76.2675H96.3317Z" fill="#3F3D56"/>
<path d="M108.5 104C110.985 104 113 101.538 113 98.5C113 95.4624 110.985 93 108.5 93C106.015 93 104 95.4624 104 98.5C104 101.538 106.015 104 108.5 104Z" fill="#2F2E41"/>
<path d="M104.663 95.7727C105.46 94.9765 105.621 93.847 105.024 93.2498C104.427 92.6526 103.297 92.814 102.501 93.6102C101.705 94.4064 101.543 95.536 102.141 96.1331C102.738 96.7303 103.867 96.5689 104.663 95.7727Z" fill="#2F2E41"/>
<path d="M113.645 94.2081C113.976 93.4314 113.406 92.4433 112.37 92.001C111.335 91.5586 110.227 91.8296 109.895 92.6063C109.563 93.3829 110.134 94.371 111.169 94.8134C112.205 95.2557 113.313 94.9847 113.645 94.2081Z" fill="#2F2E41"/>
<path d="M109 104C111.209 104 113 102.209 113 100C113 97.7909 111.209 96 109 96C106.791 96 105 97.7909 105 100C105 102.209 106.791 104 109 104Z" fill="#FFB8B8"/>
<path d="M105 96.6517C105.938 97.1375 107.05 97.3961 108.189 97.3926C107.783 97.6044 107.32 97.7474 106.834 97.8119C108.348 98.056 109.912 98.0626 111.43 97.8313C111.767 97.7906 112.092 97.7066 112.392 97.5828C112.541 97.5202 112.671 97.4347 112.773 97.3318C112.876 97.2289 112.948 97.111 112.986 96.9857C113.087 96.5526 112.638 96.1592 112.171 95.894C111.457 95.4942 110.634 95.2187 109.76 95.0876C108.887 94.9564 107.986 94.9728 107.122 95.1355C106.547 95.2226 106.023 95.4451 105.627 95.7708C105.261 96.1113 105.152 96.6363 105.501 96.9869L105 96.6517Z" fill="#2F2E41"/>
<path d="M47.1247 134.926C47.0038 134.521 46.9703 134.093 47.0265 133.673C47.0828 133.253 47.2274 132.851 47.4504 132.495C47.6733 132.139 47.969 131.838 48.3167 131.613C48.6644 131.388 49.0556 131.245 49.4627 131.193L62.8724 115L66 118.394L52.6432 133.919C52.6822 134.632 52.4669 135.335 52.0381 135.894C51.6093 136.454 50.9967 136.832 50.3165 136.956C49.6363 137.08 48.9357 136.942 48.3474 136.567C47.7591 136.193 47.3241 135.609 47.1247 134.926Z" fill="#A0616A"/>
<path d="M58.0041 117.435C57.9896 117.267 58.0137 117.098 58.0749 116.94C58.136 116.782 58.2328 116.638 58.3584 116.518L62.7475 112.335C63.2874 111.639 64.0988 111.173 65.0037 111.04C65.9085 110.906 66.8328 111.115 67.5739 111.621C68.315 112.127 68.8123 112.888 68.9567 113.739C69.1011 114.589 68.8809 115.458 68.3443 116.156L65.426 121.374C65.3427 121.523 65.2262 121.653 65.0846 121.756C64.9429 121.859 64.7793 121.932 64.6049 121.97C64.4306 122.008 64.2496 122.01 64.0743 121.976C63.8989 121.943 63.7334 121.874 63.5889 121.774L58.5106 118.285C58.366 118.186 58.2459 118.059 58.1585 117.912C58.0711 117.765 58.0184 117.602 58.0041 117.435Z" fill="#E5097F"/>
<path d="M68.5 108C72.0899 108 75 105.09 75 101.5C75 97.9102 72.0899 95 68.5 95C64.9102 95 62 97.9102 62 101.5C62 105.09 64.9102 108 68.5 108Z" fill="#A0616A"/>
<path d="M64.6166 130.759C64.4867 130.662 64.378 130.54 64.2972 130.399C64.2164 130.258 64.1652 130.102 64.1468 129.94C63.6951 126.147 63.0377 122.381 62.1775 118.659C61.7967 116.987 62.0332 115.233 62.8431 113.722C63.653 112.212 64.9811 111.049 66.5808 110.448C68.1804 109.847 69.9427 109.851 71.5401 110.457C73.1375 111.064 74.4613 112.232 75.2656 113.746C77.8353 118.591 78.0316 125.242 77.9967 127.877C77.9927 128.158 77.8906 128.429 77.7081 128.643C77.5257 128.856 77.2744 128.998 76.9983 129.044L65.5334 130.983C65.4666 130.994 65.3989 131 65.3312 131C65.0733 131 64.8224 130.915 64.6166 130.759Z" fill="#2F2E41"/>
<path d="M89.4261 109.131C89.3931 109.273 89.3716 109.418 89.3618 109.563L77.8041 116.084L74.9948 114.502L72 118.336L76.695 121.609C77.0743 121.874 77.531 122.01 77.9967 121.999C78.4623 121.988 78.9117 121.83 79.2774 121.548L91.1953 112.352C91.7332 112.547 92.3189 112.577 92.8746 112.438C93.4303 112.299 93.9296 111.999 94.3061 111.575C94.6826 111.152 94.9185 110.627 94.9824 110.07C95.0463 109.512 94.9352 108.949 94.6638 108.455C94.3924 107.961 93.9736 107.559 93.4631 107.304C92.9526 107.048 92.3746 106.95 91.8061 107.024C91.2375 107.097 90.7052 107.338 90.2801 107.715C89.855 108.091 89.5571 108.585 89.4261 109.131Z" fill="#A0616A"/>
<path d="M77.7554 116.577L74.132 121.519C74.0289 121.66 73.8982 121.775 73.7488 121.858C73.5994 121.941 73.4349 121.988 73.2664 121.998C73.0979 122.008 72.9293 121.979 72.7723 121.914C72.6152 121.849 72.4733 121.749 72.3563 121.621L68.2543 117.138C67.5738 116.579 67.1317 115.759 67.025 114.857C66.9183 113.955 67.1557 113.046 67.6852 112.328C68.2146 111.61 68.9929 111.142 69.8494 111.028C70.7059 110.913 71.5707 111.16 72.2543 111.715L77.3991 114.743C77.5463 114.83 77.6741 114.949 77.7737 115.092C77.8733 115.235 77.9424 115.4 77.9762 115.574C78.01 115.748 78.0078 115.927 77.9697 116.101C77.9316 116.274 77.8585 116.436 77.7554 116.577H77.7554Z" fill="#E5097F"/>
<path d="M83.0007 189L87.0474 189L88 177.039L83 177L83.0007 189Z" fill="#A0616A"/>
<path d="M82 188L88.7183 188H88.7186C89.2808 188 89.8375 188.1 90.357 188.295C90.8764 188.49 91.3484 188.775 91.746 189.135C92.1436 189.494 92.4589 189.921 92.6741 190.391C92.8893 190.861 93 191.365 93 191.874V192L82.0002 192L82 188Z" fill="#2F2E41"/>
<path d="M52.0006 189L55.3884 189L57 177L52 177L52.0006 189Z" fill="#A0616A"/>
<path d="M52 188L58.1075 188H58.1078C58.6189 188 59.125 188.1 59.5973 188.295C60.0695 188.49 60.4986 188.775 60.86 189.135C61.2214 189.494 61.5081 189.921 61.7037 190.391C61.8993 190.861 62 191.365 62 191.874V192L52.0002 192L52 188Z" fill="#2F2E41"/>
<path d="M55.9958 181.99L52.0229 181.465C51.8569 181.443 51.6974 181.385 51.5552 181.295C51.4129 181.206 51.2912 181.087 51.1982 180.945C51.1051 180.804 51.0429 180.645 51.0157 180.477C50.9884 180.31 50.9968 180.138 51.0402 179.974L56.8355 151.093C57.4116 148.289 57.8102 145.451 58.0289 142.596C58.1981 140.272 58.8688 136.987 61.1029 134.531C62.0115 133.523 62.8595 132.46 63.6422 131.349L65.3964 128.885L77.0822 127L77.0903 127.147C77.5951 136.564 80.007 145.774 84.1758 154.205C86.051 157.996 87.1273 162.142 87.3363 166.378L87.9985 179.474C88.0068 179.64 87.9808 179.806 87.9222 179.961C87.8636 180.116 87.7737 180.257 87.6583 180.375C87.5432 180.493 87.4047 180.586 87.2519 180.646C87.0991 180.707 86.9354 180.733 86.7716 180.725L82.9736 180.55C82.7162 180.538 82.4698 180.44 82.2723 180.272C82.0748 180.104 81.9372 179.875 81.8804 179.62L78.7094 165.273C78.6809 165.145 78.6261 165.024 78.5488 164.919L68.5972 151.463C68.5263 151.367 68.4309 151.293 68.3213 151.247C68.2118 151.202 68.0921 151.188 67.9752 151.206C67.8583 151.225 67.7485 151.275 67.6575 151.351C67.5666 151.428 67.4979 151.529 67.4588 151.642L57.2568 181.202C57.1755 181.435 57.0252 181.637 56.8263 181.78C56.6275 181.922 56.39 181.999 56.1463 182C56.096 182 56.0457 181.997 55.9958 181.99Z" fill="#2F2E41"/>
<path d="M61.8383 97.0532C62.3587 95.4988 62.7428 93.9032 62.9865 92.2841C63.0631 91.3415 62.818 90.3272 62.1213 89.6768C60.8175 88.4596 58.6022 89.0394 57.2386 90.1913C55.268 91.8561 54.2852 94.4146 53.9137 96.946C53.5423 99.4773 53.7057 102.052 53.6163 104.608C53.5269 107.164 53.1558 109.792 51.8332 111.993C50.5106 114.194 48.0563 115.883 45.4674 115.696C44.4225 115.64 43.4302 115.226 42.6629 114.525C42.2863 114.172 42.001 113.735 41.8311 113.251C41.6611 112.767 41.6115 112.249 41.6863 111.742C40.3631 114.077 41.0338 117.241 43.0075 119.076C44.9811 120.912 48.017 121.43 50.6116 120.647C53.2063 119.863 55.3418 117.898 56.6173 115.538C57.8929 113.178 58.3603 110.452 58.2925 107.779C58.2405 105.726 57.8864 103.656 58.2384 101.633C58.5905 99.6087 59.876 97.5538 61.9031 97.0772L61.8383 97.0532Z" fill="#2F2E41"/>
<path d="M70.3744 99.465C70.7241 100.616 72.0615 101.326 73.2647 101.131C74.4679 100.936 75.4573 99.96 75.8229 98.8139C76.1534 97.6433 76.0181 96.3925 75.4445 95.3169C75.1285 94.6722 74.6865 94.0952 74.1439 93.6189C73.6013 93.1427 72.9686 92.7766 72.2822 92.5415C71.592 92.3161 70.8568 92.2575 70.1388 92.3705C69.4207 92.4836 68.7407 92.765 68.1561 93.1912C68.0938 92.9326 67.9628 92.6951 67.7764 92.503C67.59 92.3109 67.355 92.1713 67.0957 92.0984C66.5734 91.9597 66.0222 91.9678 65.5043 92.1216C64.012 92.5406 62.7189 93.4675 61.8549 94.7375C61.0019 96.0036 60.4376 97.4368 60.2009 98.9385C59.7937 101.19 59.9439 103.651 61.2275 105.557C62.5111 107.463 65.1372 108.589 67.2677 107.68C67.4005 107.011 67.0858 106.337 66.7217 105.757C66.3576 105.177 65.9261 104.612 65.7863 103.945C65.6464 103.277 65.9145 102.46 66.5701 102.242C67.1293 102.055 67.7256 102.357 68.3148 102.394C68.6494 102.414 68.9837 102.348 69.284 102.201C69.5844 102.054 69.8403 101.832 70.0261 101.557C70.2118 101.282 70.321 100.964 70.3425 100.635C70.364 100.305 70.2972 99.9754 70.1488 99.6792L70.3744 99.465Z" fill="#2F2E41"/>
<path d="M242.736 192H0.26413C0.194079 192 0.126896 191.947 0.0773618 191.854C0.0278277 191.76 0 191.633 0 191.5C0 191.367 0.0278277 191.24 0.0773618 191.146C0.126896 191.053 0.194079 191 0.26413 191H242.736C242.806 191 242.873 191.053 242.923 191.146C242.972 191.24 243 191.367 243 191.5C243 191.633 242.972 191.76 242.923 191.854C242.873 191.947 242.806 192 242.736 192Z" fill="#CCCCCC"/>
</svg>
