<svg width="267" height="160" viewBox="0 0 267 160" fill="none" xmlns="http://www.w3.org/2000/svg">
<path d="M204.065 158.203C200.627 155.309 198.539 150.737 199.087 146.286C199.634 141.835 203.026 137.744 207.426 136.799C211.826 135.853 216.841 138.47 218.177 142.752C218.913 134.496 219.76 125.895 224.165 118.865C228.154 112.499 235.063 107.944 242.551 107.129C250.039 106.314 257.922 109.392 262.592 115.28C267.262 121.168 268.405 129.728 265.135 136.489C262.725 141.469 258.286 145.175 253.636 148.19C238.607 157.851 220.582 161.779 202.878 159.253L204.065 158.203Z" fill="#F2F2F2"/>
<path d="M254.77 110.168C248.638 115.133 243.012 120.685 237.973 126.745C230.089 136.197 223.708 146.793 219.054 158.167C218.714 158.996 220.069 159.357 220.406 158.537C228.021 140.053 240.176 123.762 255.762 111.153C256.462 110.587 255.465 109.606 254.77 110.168Z" fill="white"/>
<path d="M86.0727 157.509C90.7743 153.524 93.6302 147.228 92.8812 141.099C92.1323 134.97 87.4935 129.336 81.4764 128.034C75.4592 126.733 68.6001 130.335 66.7725 136.232C65.7667 124.864 64.6076 113.019 58.5827 103.338C53.1272 94.5724 43.6783 88.3 33.4377 87.1779C23.1972 86.0558 12.4152 90.2939 6.02858 98.4022C-0.358068 106.51 -1.92181 118.298 2.55123 127.607C5.84636 134.465 11.9172 139.568 18.2778 143.72C38.5706 156.966 63.7438 162.491 87.6964 158.955" fill="#F2F2F2"/>
<path d="M15.6948 91.2297C24.1481 98.0179 31.903 105.61 38.8475 113.896C45.7931 122.174 51.908 131.096 57.1062 140.538C60.0117 145.835 62.6219 151.283 64.9249 156.86C65.3945 157.995 63.526 158.489 63.0616 157.367C58.9824 147.535 53.9355 138.12 47.9935 129.259C42.0803 120.43 35.3124 112.187 27.7847 104.646C23.5271 100.383 19.0349 96.3535 14.3285 92.5768C13.3638 91.8023 14.7381 90.4616 15.6948 91.2297L15.6948 91.2297Z" fill="white"/>
<path d="M192 160H80V44.5472C80 19.9837 99.8907 0 124.34 0H147.66C172.109 0 192 19.9837 192 44.5472V160Z" fill="#F2F2F2"/>
<path d="M168 160H80.0001V44.5463C79.9759 35.1341 82.9197 25.9598 88.403 18.3591C88.6051 18.0801 88.8067 17.8048 89.0146 17.5325C91.6669 14.0106 94.8231 10.909 98.3792 8.32994C98.5801 8.18196 98.7817 8.03655 98.9864 7.89114C101.962 5.80632 105.181 4.10202 108.57 2.81704C108.771 2.73981 108.976 2.66244 109.181 2.58823C112.245 1.48088 115.422 0.722354 118.653 0.326653C118.853 0.298953 119.059 0.277278 119.265 0.255602C122.413 -0.0852006 125.588 -0.0852006 128.736 0.255602C128.941 0.277278 129.147 0.29895 129.349 0.326949C132.579 0.722676 135.755 1.48111 138.819 2.58824C139.024 2.66245 139.229 2.73982 139.431 2.8172C142.778 4.08597 145.959 5.76484 148.903 7.81633C149.107 7.95858 149.312 8.104 149.514 8.24941C151.507 9.68996 153.379 11.2948 155.112 13.0476C156.501 14.4535 157.795 15.9521 158.986 17.5334C159.193 17.8048 159.395 18.0801 159.597 18.3586C165.08 25.9594 168.024 35.1339 168 44.5463V160Z" fill="#CCCCCC"/>
<path d="M161 108C163.761 108 166 105.985 166 103.5C166 101.015 163.761 99 161 99C158.239 99 156 101.015 156 103.5C156 105.985 158.239 108 161 108Z" fill="#E5097F"/>
<path d="M181.999 156H178.612L177 142L182 142L181.999 156Z" fill="#FFB8B8"/>
<path d="M175.636 155H183V160H171C171 159.343 171.12 158.693 171.353 158.087C171.586 157.48 171.927 156.929 172.358 156.464C172.788 156 173.3 155.632 173.862 155.381C174.425 155.129 175.028 155 175.636 155Z" fill="#2F2E41"/>
<path d="M200.999 156H197.612L196 142L201 142L200.999 156Z" fill="#FFB8B8"/>
<path d="M194.636 155H202V160H190C190 159.343 190.12 158.693 190.353 158.087C190.586 157.48 190.927 156.929 191.358 156.464C191.788 156 192.3 155.632 192.862 155.381C193.425 155.129 194.028 155 194.636 155Z" fill="#2F2E41"/>
<path d="M163.568 104.514C163.298 104.112 163.118 103.654 163.042 103.173C162.965 102.692 162.994 102.201 163.126 101.733C163.258 101.264 163.489 100.831 163.804 100.463C164.119 100.095 164.51 99.802 164.95 99.6037L177.717 64L184 67.4688L169.422 101.493C169.703 102.262 169.695 103.108 169.4 103.871C169.105 104.635 168.543 105.262 167.821 105.634C167.1 106.007 166.268 106.098 165.484 105.892C164.7 105.686 164.019 105.195 163.568 104.514Z" fill="#FFB8B8"/>
<path d="M198.933 110.558C198.508 110.322 198.141 109.999 197.859 109.612C197.577 109.224 197.386 108.781 197.3 108.315C197.214 107.848 197.234 107.369 197.361 106.911C197.487 106.453 197.715 106.028 198.03 105.664L194 69L201.285 69.3217L202.959 105.386C203.556 105.938 203.922 106.682 203.989 107.477C204.056 108.272 203.819 109.063 203.322 109.701C202.826 110.338 202.105 110.778 201.296 110.935C200.487 111.093 199.646 110.959 198.933 110.558Z" fill="#FFB8B8"/>
<path d="M187.5 58C191.642 58 195 54.6421 195 50.5C195 46.3579 191.642 43 187.5 43C183.358 43 180 46.3579 180 50.5C180 54.6421 183.358 58 187.5 58Z" fill="#FFB8B8"/>
<path d="M199.634 103H177L177.027 102.823C177.068 102.559 181.061 76.2993 178.116 67.7084C177.82 66.8642 177.846 65.94 178.189 65.1139C178.531 64.2877 179.166 63.6179 179.971 63.2335H179.971C184.181 61.2434 192.261 58.793 199.082 64.7398C200.085 65.6293 200.869 66.7411 201.371 67.987C201.873 69.233 202.079 70.5791 201.973 71.9189L199.634 103Z" fill="#E5097F"/>
<path d="M181.039 80L171 77.881L175.706 66.2791C175.987 65.1554 176.686 64.1937 177.648 63.6051C178.61 63.0165 179.758 62.849 180.838 63.1392C181.919 63.4295 182.845 64.1539 183.413 65.1535C183.981 66.1531 184.145 67.3464 183.869 68.4715L181.039 80Z" fill="#E5097F"/>
<path d="M193.708 84L193.085 69.7016C192.613 67.0137 194.15 64.4728 196.513 64.0575C198.876 63.6437 201.184 65.5079 201.659 68.2155L204 81.576L193.708 84Z" fill="#E5097F"/>
<path d="M198.431 101C202.126 114.941 202.529 132.666 201.532 152L196.571 151.386L187.58 114.518L182.619 152L177.038 151.693C175.37 131.407 173.747 113.991 176.418 102.536L198.431 101Z" fill="#2F2E41"/>
<path d="M192.525 56.2105C191.168 57.7416 188.648 56.9197 188.472 54.828C188.458 54.6656 188.459 54.5021 188.475 54.3399C188.566 53.4134 189.071 52.5722 188.95 51.5939C188.923 51.3504 188.837 51.1183 188.701 50.9197C187.62 49.3859 185.082 51.6058 184.061 50.2173C183.436 49.3659 184.171 48.0253 183.691 47.0737C183.057 45.8178 181.18 46.4374 180.003 45.7495C178.693 44.9843 178.771 42.8555 179.634 41.5607C180.685 39.9817 182.529 39.1391 184.349 39.0176C186.17 38.8962 187.978 39.4175 189.678 40.1192C191.609 40.9164 193.524 42.0182 194.712 43.817C196.157 46.0045 196.297 48.9455 195.574 51.5034C195.134 53.0594 193.633 54.9602 192.525 56.2105Z" fill="#2F2E41"/>
<path d="M257.636 160H31.3639C31.2673 160 31.1747 159.947 31.1065 159.853C31.0383 159.759 31 159.632 31 159.5C31 159.368 31.0383 159.241 31.1065 159.147C31.1747 159.053 31.2673 159 31.3639 159H257.636C257.733 159 257.825 159.053 257.893 159.147C257.962 159.241 258 159.368 258 159.5C258 159.632 257.962 159.759 257.893 159.853C257.825 159.947 257.733 160 257.636 160Z" fill="#3F3D56"/>
<path d="M144 126H104C103.473 126.003 102.967 125.797 102.592 125.428C102.217 125.059 102.004 124.556 102 124.031V34.9691C102.004 34.4436 102.217 33.9412 102.592 33.572C102.967 33.2029 103.473 32.9972 104 33H144C144.527 32.9972 145.033 33.2029 145.408 33.572C145.783 33.9412 145.996 34.4436 146 34.9691V124.031C145.996 124.556 145.783 125.059 145.408 125.428C145.033 125.797 144.527 126.003 144 126Z" fill="white"/>
<path d="M146 62H102V63H146V62Z" fill="#CCCCCC"/>
<path d="M146 97H102V98H146V97Z" fill="#CCCCCC"/>
<path d="M132 33H131V127H132V33Z" fill="#CCCCCC"/>
</svg>
