<svg width="257" height="207" viewBox="0 0 257 207" fill="none" xmlns="http://www.w3.org/2000/svg">
<path d="M245.859 0.00130327H169.013C165.305 0.00112138 161.707 1.26453 158.811 3.58384C155.914 5.90316 153.892 9.14034 153.077 12.7632L114.249 185.247C113.825 187.128 113.818 189.08 114.227 190.964C114.636 192.849 115.452 194.621 116.617 196.156C117.782 197.692 119.269 198.953 120.972 199.853C122.676 200.752 124.555 201.267 126.479 201.362L205.477 205.26C209.707 205.468 213.868 204.129 217.184 201.49C220.501 198.852 222.745 195.095 223.499 190.922L245.526 68.974L247.165 69.4429L251.38 46.3291L249.694 45.9069L255.842 11.8667C256.105 10.4087 256.044 8.91035 255.663 7.4786C255.282 6.04685 254.591 4.71693 253.637 3.58365C252.684 2.45038 251.493 1.54165 250.149 0.922268C248.805 0.302884 247.341 -0.0119051 245.862 0.000344248L245.859 0.00130327Z" fill="#3F3D56"/>
<path d="M179.129 3.71954H170.159C167.583 3.71957 165.085 4.6019 163.078 6.22007C161.072 7.83823 159.679 10.0949 159.13 12.6155L121.859 183.692C121.644 184.677 121.644 185.697 121.859 186.682C122.074 187.667 122.499 188.594 123.105 189.399C123.71 190.204 124.482 190.869 125.368 191.349C126.253 191.828 127.232 192.11 128.236 192.176L206.978 197.344C209.199 197.49 211.397 196.812 213.15 195.439C214.904 194.065 216.092 192.094 216.486 189.899L248.289 13.0751C248.495 11.9306 248.448 10.7549 248.15 9.6308C247.853 8.50672 247.313 7.46171 246.568 6.56951C245.823 5.67732 244.892 4.95968 243.84 4.46725C242.788 3.97481 241.641 3.71957 240.48 3.71954H231.971C231.148 3.71952 230.347 3.99141 229.693 4.49313C229.039 4.99484 228.569 5.6984 228.355 6.49487C228.166 7.19825 227.75 7.81957 227.173 8.26256C226.596 8.70555 225.889 8.9455 225.161 8.94522H184.765C183.341 8.94518 181.969 8.40697 180.924 7.43817C179.879 6.46937 179.238 5.14135 179.129 3.71954Z" fill="white"/>
<path d="M222.657 123.317C222.81 123.322 222.96 123.272 223.079 123.176C223.199 123.079 223.28 122.944 223.307 122.793L240.72 26.5449C240.737 26.4534 240.734 26.3594 240.711 26.2693C240.688 26.1792 240.646 26.0952 240.587 26.0229C240.529 25.9511 240.456 25.8931 240.374 25.8528C240.291 25.8125 240.2 25.7909 240.108 25.7897L160.885 24.8525H160.878C160.734 24.8538 160.595 24.9039 160.483 24.9946C160.371 25.0854 160.294 25.2114 160.263 25.3521L139.735 118.476C139.715 118.567 139.715 118.661 139.734 118.752C139.754 118.843 139.793 118.929 139.849 119.003C139.904 119.077 139.975 119.138 140.056 119.181C140.137 119.225 140.227 119.249 140.319 119.254L222.657 123.317Z" fill="#E6E6E6"/>
<path d="M153.908 129.54C153.836 129.54 153.766 129.564 153.709 129.609C153.653 129.654 153.613 129.717 153.597 129.787L152.855 132.971C152.844 133.016 152.844 133.063 152.853 133.108C152.862 133.153 152.881 133.196 152.909 133.233C152.936 133.271 152.971 133.302 153.011 133.324C153.052 133.346 153.096 133.36 153.142 133.363L195.053 136.346C195.131 136.351 195.208 136.328 195.27 136.28C195.332 136.233 195.374 136.165 195.39 136.088L196.103 132.404C196.112 132.359 196.111 132.313 196.1 132.269C196.09 132.224 196.07 132.183 196.042 132.147C196.014 132.111 195.979 132.081 195.939 132.06C195.898 132.039 195.854 132.027 195.809 132.024L153.927 129.54L153.908 129.54Z" fill="#E6E6E6"/>
<path d="M204.827 148.175C204.903 148.181 204.978 148.16 205.04 148.115C205.101 148.071 205.145 148.006 205.163 147.932L206.071 144.24C206.082 144.195 206.083 144.148 206.074 144.102C206.065 144.056 206.047 144.013 206.019 143.975C205.992 143.938 205.957 143.906 205.916 143.884C205.875 143.861 205.83 143.848 205.784 143.844L152.261 140.095C152.188 140.09 152.116 140.109 152.056 140.151C151.996 140.192 151.952 140.253 151.932 140.324L150.988 143.514C150.975 143.56 150.972 143.608 150.979 143.655C150.986 143.702 151.004 143.746 151.031 143.786C151.058 143.825 151.093 143.857 151.134 143.881C151.175 143.905 151.221 143.92 151.269 143.923L204.827 148.175Z" fill="#E6E6E6"/>
<path d="M201.953 160.009C202.028 160.015 202.104 159.994 202.165 159.949C202.227 159.905 202.27 159.84 202.288 159.766L203.197 156.074C203.208 156.029 203.209 155.982 203.2 155.936C203.191 155.891 203.172 155.847 203.145 155.81C203.118 155.772 203.082 155.741 203.042 155.718C203.001 155.696 202.956 155.682 202.909 155.679L149.386 151.93C149.314 151.924 149.241 151.944 149.181 151.985C149.121 152.027 149.078 152.088 149.058 152.158L148.114 155.348C148.1 155.394 148.097 155.442 148.105 155.489C148.112 155.536 148.13 155.581 148.157 155.62C148.184 155.659 148.219 155.692 148.26 155.716C148.301 155.74 148.347 155.754 148.394 155.758L201.953 160.009Z" fill="#E6E6E6"/>
<path d="M109.154 201.672C109.154 204.348 84.6886 204.633 54.577 206.518C24.4923 208.401 0 204.348 0 201.672C0 198.995 24.6066 193.609 54.577 196.825C84.6886 200.056 109.154 198.995 109.154 201.672Z" fill="#E6E6E6"/>
<path d="M177.302 180.24C177.378 180.248 177.455 180.228 177.517 180.183C177.58 180.139 177.624 180.073 177.642 179.999L179.562 172.306C179.574 172.261 179.575 172.214 179.566 172.169C179.558 172.123 179.539 172.08 179.512 172.042C179.486 172.005 179.451 171.973 179.41 171.95C179.37 171.927 179.325 171.913 179.279 171.91L146.411 169.141C146.334 169.136 146.258 169.158 146.196 169.203C146.134 169.249 146.09 169.315 146.072 169.39L144.434 176.773C144.425 176.817 144.424 176.863 144.433 176.908C144.443 176.952 144.461 176.994 144.488 177.031C144.515 177.068 144.549 177.098 144.588 177.121C144.628 177.143 144.671 177.157 144.716 177.161L177.302 180.24Z" fill="#E5097F"/>
<path d="M44.5871 148.893C45.001 148.609 45.3476 148.237 45.6026 147.804C45.8576 147.372 46.0147 146.888 46.0629 146.388C46.111 145.888 46.0491 145.383 45.8814 144.91C45.7137 144.436 45.4444 144.005 45.0923 143.647L46.4232 113.895L39.6477 114.657L40.0415 143.758C39.4796 144.39 39.1687 145.206 39.1678 146.052C39.1669 146.898 39.4761 147.715 40.0366 148.348C40.5971 148.981 41.3701 149.386 42.2089 149.486C43.0477 149.586 43.8941 149.375 44.5874 148.891L44.5871 148.893Z" fill="#A0616A"/>
<path d="M56.9477 199.256L60.8041 199.935L64.6155 185.361L59.5627 184.359L56.9477 199.256Z" fill="#A0616A"/>
<path d="M67.6129 204.83L55.4931 202.696L56.3163 198.007L63.7534 199.316C64.9953 199.535 66.0996 200.239 66.8234 201.273C67.5472 202.307 67.8312 203.586 67.6128 204.83L67.6129 204.83Z" fill="#2F2E41"/>
<path d="M46.3631 201.189H50.2786L52.1412 186.064H46.3625L46.3631 201.189Z" fill="#A0616A"/>
<path d="M57.8285 204.83L45.5228 204.831L45.5225 200.069L53.0737 200.069C54.3347 200.069 55.544 200.571 56.4357 201.464C57.3274 202.356 57.8284 203.568 57.8285 204.83Z" fill="#2F2E41"/>
<path d="M62.6986 195.767C62.6376 195.767 62.5766 195.764 62.516 195.756L57.9074 195.377C57.6976 195.352 57.495 195.285 57.3119 195.179C57.1288 195.074 56.969 194.932 56.8423 194.763C56.7156 194.593 56.6245 194.4 56.5747 194.195C56.5248 193.989 56.5172 193.775 56.5523 193.567L61.1273 170.96L58.253 155.775C58.2296 155.652 58.1624 155.541 58.0638 155.463C57.9653 155.386 57.842 155.346 57.7167 155.352C57.5915 155.359 57.4727 155.41 57.3823 155.497C57.2919 155.584 57.236 155.701 57.2249 155.826L52.9898 194.409C52.9502 194.815 52.7546 195.19 52.4442 195.455C52.1338 195.72 51.7328 195.853 51.3258 195.828L46.984 195.666C46.6035 195.639 46.2461 195.473 45.9792 195.2C45.7123 194.927 45.5544 194.566 45.5353 194.185L45.8821 147.561L68.3918 144.743L69.9643 169.065L69.9579 169.091L64.2121 194.575C64.1295 194.914 63.9354 195.216 63.661 195.433C63.3866 195.649 63.0478 195.767 62.6986 195.767Z" fill="#2F2E41"/>
<path d="M53.3053 94.6172C57.6375 94.6172 61.1494 91.1001 61.1494 86.7614C61.1494 82.4228 57.6375 78.9056 53.3053 78.9056C48.9731 78.9056 45.4612 82.4228 45.4612 86.7614C45.4612 91.1001 48.9731 94.6172 53.3053 94.6172Z" fill="#A0616A"/>
<path d="M60.6962 151.109C59.4694 151.116 58.2661 150.772 57.2288 150.116C53.4283 147.737 49.1132 148.682 46.8789 149.458C46.6572 149.536 46.4207 149.562 46.1873 149.535C45.9538 149.509 45.7294 149.43 45.5308 149.304C45.3346 149.18 45.1687 149.014 45.0457 148.817C44.9227 148.621 44.8457 148.399 44.8206 148.168L40.7578 111.825C40.0769 105.736 43.7395 100.011 49.4665 98.2123C49.6817 98.1447 49.9005 98.0807 50.1228 98.0204C51.9049 97.5365 53.7713 97.4496 55.5906 97.7659C57.41 98.0821 59.138 98.7938 60.6531 99.8509C62.1964 100.919 63.4872 102.314 64.4344 103.936C65.3817 105.558 65.9624 107.368 66.1357 109.239L69.5565 145.826C69.5798 146.063 69.5479 146.302 69.4633 146.524C69.3786 146.747 69.2436 146.946 69.0688 147.107C67.8693 148.218 64.3888 151.109 60.6962 151.109Z" fill="#E5097F"/>
<path d="M48.3234 119.618L39.1575 118.609C38.8966 118.58 38.645 118.496 38.4198 118.361C38.1946 118.226 38.0011 118.044 37.8525 117.827C37.7038 117.611 37.6035 117.365 37.5583 117.106C37.5132 116.847 37.5243 116.581 37.5909 116.327L39.9243 107.421C39.993 106.753 40.1932 106.106 40.5132 105.516C40.8332 104.927 41.2667 104.406 41.7887 103.986C42.3107 103.565 42.9108 103.252 43.5543 103.064C44.1978 102.877 44.8719 102.82 45.5378 102.895C46.2037 102.97 46.8481 103.177 47.4337 103.503C48.0193 103.829 48.5346 104.268 48.9497 104.795C49.3648 105.322 49.6716 105.926 49.8523 106.572C50.033 107.219 50.084 107.894 50.0024 108.56L50.3489 117.732C50.3588 117.995 50.3121 118.256 50.2119 118.499C50.1117 118.742 49.9604 118.961 49.7683 119.14C49.5762 119.319 49.3478 119.454 49.0987 119.537C48.8496 119.62 48.5856 119.648 48.3247 119.619L48.3234 119.618Z" fill="#E5097F"/>
<path d="M69.5191 147.619C69.8956 147.287 70.1949 146.876 70.3958 146.416C70.5968 145.956 70.6945 145.457 70.6822 144.955C70.6698 144.452 70.5476 143.959 70.3243 143.509C70.1009 143.06 69.7818 142.664 69.3895 142.351L67.1306 112.656L60.4911 114.153L64.3875 143.072C63.9057 143.767 63.6953 144.614 63.7961 145.454C63.897 146.294 64.3022 147.068 64.9348 147.629C65.5674 148.189 66.3835 148.498 67.2282 148.496C68.073 148.494 68.8877 148.182 69.5179 147.619H69.5191Z" fill="#A0616A"/>
<path d="M57.9461 117.752C57.7539 117.573 57.6026 117.355 57.5024 117.112C57.4022 116.869 57.3555 116.607 57.3655 116.345L57.712 107.173C57.6373 106.51 57.6936 105.839 57.8778 105.198C58.062 104.557 58.3705 103.959 58.7856 103.438C59.2006 102.916 59.7142 102.481 60.297 102.159C60.8798 101.836 61.5203 101.631 62.1821 101.556C62.8438 101.482 63.5138 101.538 64.1537 101.723C64.7937 101.907 65.3911 102.216 65.9118 102.632C66.4326 103.047 66.8665 103.562 67.1887 104.145C67.511 104.729 67.7153 105.371 67.7901 106.033L70.1234 114.94C70.19 115.194 70.2011 115.459 70.156 115.718C70.1109 115.977 70.0105 116.223 69.8619 116.44C69.7132 116.656 69.5197 116.838 69.2945 116.973C69.0693 117.108 68.8177 117.193 68.5569 117.222L59.3909 118.231C59.13 118.26 58.8659 118.232 58.6168 118.149C58.3677 118.066 58.1393 117.93 57.9474 117.751L57.9461 117.752Z" fill="#E5097F"/>
<path d="M52.8387 94.9131C52.6989 94.9131 52.5596 94.8969 52.4235 94.8648L52.3836 94.8552C45.4871 93.7997 43.9627 89.7978 43.6284 88.1272C43.2822 86.3975 43.6763 84.7278 44.5673 84.0792C44.0815 82.5439 44.1595 81.1811 44.7995 80.0293C45.9173 78.0206 48.3384 77.3426 48.6639 77.2581C50.5986 75.8287 52.9134 76.7828 53.3347 76.9763C57.0774 75.5898 58.5085 76.7438 58.7665 77.0016C60.4394 77.3026 61.4592 77.9496 61.7977 78.9258C62.4336 80.7588 60.4228 83.039 60.3369 83.1353L60.2922 83.1852L57.2965 83.3282C57.0122 83.3418 56.734 83.4151 56.4798 83.5433C56.2257 83.6715 56.0012 83.8518 55.8211 84.0725C55.641 84.2931 55.5092 84.5492 55.4343 84.8242C55.3594 85.0992 55.3431 85.3868 55.3863 85.6685C55.4674 86.0319 55.5697 86.3903 55.6929 86.7416C56.2039 88.3428 56.5872 89.7108 56.0934 90.2308C55.9814 90.3314 55.8434 90.3985 55.6951 90.4242C55.5468 90.4499 55.3944 90.4334 55.2551 90.3764C54.7865 90.251 54.4688 90.2772 54.3104 90.4547C54.0644 90.7295 54.1395 91.4255 54.5218 92.4138C54.6417 92.7264 54.674 93.0659 54.6151 93.3955C54.5562 93.7252 54.4084 94.0324 54.1877 94.2839C54.0215 94.4803 53.8148 94.6382 53.5818 94.7468C53.3488 94.8554 53.0951 94.9121 52.8381 94.9131H52.8387Z" fill="#2F2E41"/>
</svg>
